<?xml version="1.0" encoding="UTF-8"?>
<svg xmlns="http://www.w3.org/2000/svg" xmlns:xlink="http://www.w3.org/1999/xlink" width="186.57pt" height="91.83pt" viewBox="0 0 186.57 91.83" version="1.1">
<defs>
<clipPath id="clip1">
  <path d="M 164 19 L 186.570312 19 L 186.570312 52 L 164 52 Z M 164 19 "/>
</clipPath>
<clipPath id="clip2">
  <path d="M 60 40 L 90 40 L 90 91.828125 L 60 91.828125 Z M 60 40 "/>
</clipPath>
<clipPath id="clip3">
  <path d="M 30 40 L 61 40 L 61 91.828125 L 30 91.828125 Z M 30 40 "/>
</clipPath>
<clipPath id="clip4">
  <path d="M 122 36 L 152 36 L 152 91.828125 L 122 91.828125 Z M 122 36 "/>
</clipPath>
<clipPath id="clip5">
  <path d="M 93 39 L 123 39 L 123 91.828125 L 93 91.828125 Z M 93 39 "/>
</clipPath>
<clipPath id="clip6">
  <path d="M 164 19 L 186.570312 19 L 186.570312 52 L 164 52 Z M 164 19 "/>
</clipPath>
<clipPath id="clip7">
  <path d="M 60 40 L 90 40 L 90 91.828125 L 60 91.828125 Z M 60 40 "/>
</clipPath>
<clipPath id="clip8">
  <path d="M 122 36 L 152 36 L 152 91.828125 L 122 91.828125 Z M 122 36 "/>
</clipPath>
</defs>
<g id="surface1">
<path style=" stroke:none;fill-rule:nonzero;fill:rgb(90.039062%,90.039062%,90.039062%);fill-opacity:1;" d="M 17.535156 0 L 20.925781 9 C 9.644531 9 0.835938 18.488281 0.0625 29.992188 C -1.050781 46.542969 13.035156 59.984375 30.050781 59.984375 C 47.070312 59.984375 61.15625 46.542969 60.042969 29.992188 C 59.269531 18.488281 50.460938 9 39.179688 9 L 42.570312 0 Z M 26.921875 7.824219 L 33.179688 7.824219 L 31.355469 14.476562 C 41.378906 14.476562 50.710938 20.417969 52.21875 29.992188 C 54.125 42.097656 43.15625 52.160156 30.050781 52.160156 C 16.945312 52.160156 5.980469 42.097656 7.886719 29.992188 C 9.394531 20.417969 18.726562 14.476562 28.75 14.476562 L 26.921875 7.824219 "/>
<path style=" stroke:none;fill-rule:nonzero;fill:rgb(2.734375%,51.951599%,78.125%);fill-opacity:1;" d="M 19.097656 1.304688 L 22.226562 9.910156 C 11.175781 9.910156 2.285156 18.835938 1.367188 29.992188 C 0.0625 45.808594 13.664062 58.679688 30.050781 58.679688 C 46.4375 58.679688 60.042969 45.808594 58.738281 29.992188 C 57.820312 18.835938 48.925781 9.910156 37.875 9.910156 L 41.003906 1.304688 Z M 25.359375 6.519531 L 34.746094 6.519531 L 32.660156 13.5625 C 42.871094 13.5625 52.109375 20.128906 53.523438 29.992188 C 55.363281 42.839844 43.835938 53.464844 30.050781 53.464844 C 16.269531 53.464844 4.742188 42.839844 6.582031 29.992188 C 7.992188 20.128906 17.230469 13.5625 27.445312 13.5625 L 25.359375 6.519531 "/>
<path style="fill:none;stroke-width:10;stroke-linecap:round;stroke-linejoin:round;stroke:rgb(2.734375%,51.951599%,78.125%);stroke-opacity:1;stroke-miterlimit:10;" d="M 45.390625 618.378125 L 555.625 618.378125 " transform="matrix(0.1,0,0,-0.1,0,91.83)"/>
<path style=" stroke:none;fill-rule:nonzero;fill:rgb(2.734375%,51.951599%,78.125%);fill-opacity:1;" d="M 22.964844 38.496094 C 22.964844 36.148438 21.0625 34.242188 18.714844 34.242188 C 16.363281 34.242188 14.460938 36.148438 14.460938 38.496094 C 14.460938 40.84375 16.363281 42.746094 18.714844 42.746094 C 21.0625 42.746094 22.964844 40.84375 22.964844 38.496094 "/>
<path style=" stroke:none;fill-rule:nonzero;fill:rgb(2.734375%,51.951599%,78.125%);fill-opacity:1;" d="M 32.886719 45.582031 C 32.886719 44.015625 31.617188 42.746094 30.050781 42.746094 C 28.488281 42.746094 27.21875 44.015625 27.21875 45.582031 C 27.21875 47.148438 28.488281 48.417969 30.050781 48.417969 C 31.617188 48.417969 32.886719 47.148438 32.886719 45.582031 "/>
<path style=" stroke:none;fill-rule:nonzero;fill:rgb(2.734375%,51.951599%,78.125%);fill-opacity:1;" d="M 43.09375 35.660156 C 43.09375 34.722656 42.332031 33.960938 41.390625 33.960938 C 40.453125 33.960938 39.691406 34.722656 39.691406 35.660156 C 39.691406 36.601562 40.453125 37.363281 41.390625 37.363281 C 42.332031 37.363281 43.09375 36.601562 43.09375 35.660156 "/>
<path style=" stroke:none;fill-rule:nonzero;fill:rgb(90.039062%,90.039062%,90.039062%);fill-opacity:1;" d="M 91.847656 59.757812 C 108.285156 59.757812 121.609375 46.429688 121.609375 29.992188 C 121.609375 13.554688 108.285156 0.226562 91.847656 0.226562 C 75.410156 0.226562 62.085938 13.554688 62.085938 29.992188 C 62.085938 46.429688 75.410156 59.757812 91.847656 59.757812 L 91.847656 52.667969 C 79.324219 52.667969 69.171875 42.515625 69.171875 29.992188 C 69.171875 17.46875 79.324219 7.316406 91.847656 7.316406 C 104.371094 7.316406 114.523438 17.46875 114.523438 29.992188 C 114.523438 42.515625 104.371094 52.667969 91.847656 52.667969 L 91.847656 59.757812 "/>
<path style=" stroke:none;fill-rule:nonzero;fill:rgb(0%,0%,0%);fill-opacity:1;" d="M 91.847656 58.339844 C 107.503906 58.339844 120.195312 45.648438 120.195312 29.992188 C 120.195312 14.335938 107.503906 1.644531 91.847656 1.644531 C 76.191406 1.644531 63.5 14.335938 63.5 29.992188 C 63.5 45.648438 76.191406 58.339844 91.847656 58.339844 L 91.847656 54.085938 C 78.539062 54.085938 67.753906 43.300781 67.753906 29.992188 C 67.753906 16.683594 78.539062 5.898438 91.847656 5.898438 C 105.15625 5.898438 115.941406 16.683594 115.941406 29.992188 C 115.941406 43.300781 105.15625 54.085938 91.847656 54.085938 L 91.847656 58.339844 "/>
<path style="fill:none;stroke-width:20;stroke-linecap:round;stroke-linejoin:round;stroke:rgb(0%,0%,0%);stroke-opacity:1;stroke-miterlimit:10;" d="M 805.078125 618.378125 L 816.914062 638.846875 C 820.039062 644.276562 827.929688 644.276562 831.054688 638.846875 L 835.78125 630.64375 C 840.507812 622.479687 845.234375 614.276562 849.960938 606.1125 L 854.6875 597.909375 C 857.851562 592.479687 865.703125 592.479687 868.867188 597.909375 L 873.59375 606.1125 C 878.320312 614.276562 883.046875 622.479687 887.773438 630.64375 L 892.5 638.846875 C 895.625 644.276562 903.515625 644.276562 906.679688 638.846875 L 911.40625 630.64375 C 916.09375 622.479687 920.859375 614.276562 925.546875 606.1125 L 930.273438 597.909375 C 933.4375 592.479687 941.328125 592.479687 944.453125 597.909375 L 949.179688 606.1125 C 953.90625 614.276562 958.632812 622.479687 963.359375 630.64375 L 968.085938 638.846875 C 971.210938 644.276562 979.101562 644.276562 982.265625 638.846875 L 986.992188 630.64375 C 991.71875 622.479687 996.445312 614.276562 1001.132812 606.1125 L 1005.898438 597.909375 C 1009.023438 592.479687 1016.914062 592.479687 1020.039062 597.909375 L 1031.875 618.378125 " transform="matrix(0.1,0,0,-0.1,0,91.83)"/>
<path style="fill:none;stroke-width:20;stroke-linecap:round;stroke-linejoin:round;stroke:rgb(0%,0%,0%);stroke-opacity:1;stroke-miterlimit:10;" d="M 805.078125 618.378125 L 708.28125 450.682812 " transform="matrix(0.1,0,0,-0.1,0,91.83)"/>
<path style="fill:none;stroke-width:20;stroke-linecap:round;stroke-linejoin:round;stroke:rgb(0%,0%,0%);stroke-opacity:1;stroke-miterlimit:10;" d="M 805.078125 618.378125 L 708.28125 786.073437 " transform="matrix(0.1,0,0,-0.1,0,91.83)"/>
<path style="fill:none;stroke-width:20;stroke-linecap:round;stroke-linejoin:round;stroke:rgb(0%,0%,0%);stroke-opacity:1;stroke-miterlimit:10;" d="M 1031.875 618.378125 L 1128.671875 450.682812 " transform="matrix(0.1,0,0,-0.1,0,91.83)"/>
<path style="fill:none;stroke-width:20;stroke-linecap:round;stroke-linejoin:round;stroke:rgb(0%,0%,0%);stroke-opacity:1;stroke-miterlimit:10;" d="M 1031.875 618.378125 L 1128.671875 786.073437 " transform="matrix(0.1,0,0,-0.1,0,91.83)"/>
<path style=" stroke:none;fill-rule:nonzero;fill:rgb(90.039062%,90.039062%,90.039062%);fill-opacity:1;" d="M 138.679688 45.023438 C 138.640625 45.488281 138.617188 45.957031 138.617188 46.433594 C 138.617188 55.355469 145.851562 62.589844 154.777344 62.589844 C 163.699219 62.589844 170.933594 55.355469 170.933594 46.433594 C 170.933594 45.957031 170.914062 45.488281 170.875 45.023438 L 162.402344 45.765625 C 162.421875 45.984375 162.429688 46.207031 162.429688 46.433594 C 162.429688 50.660156 159.003906 54.085938 154.777344 54.085938 C 150.550781 54.085938 147.121094 50.660156 147.121094 46.433594 C 147.121094 46.207031 147.132812 45.984375 147.152344 45.765625 L 138.679688 45.023438 "/>
<g clip-path="url(#clip1)" clip-rule="nonzero">
<path style=" stroke:none;fill-rule:nonzero;fill:rgb(90.039062%,90.039062%,90.039062%);fill-opacity:1;" d="M 164.097656 49.945312 C 164.527344 50.128906 164.96875 50.292969 165.421875 50.4375 C 173.90625 53.195312 183.023438 48.550781 185.78125 40.066406 C 188.535156 31.578125 183.894531 22.464844 175.40625 19.707031 C 174.953125 19.558594 174.503906 19.433594 174.046875 19.328125 L 172.136719 27.613281 C 172.351562 27.664062 172.5625 27.722656 172.777344 27.792969 C 176.796875 29.101562 178.996094 33.417969 177.691406 37.4375 C 176.386719 41.457031 172.066406 43.65625 168.046875 42.351562 C 167.835938 42.28125 167.625 42.203125 167.421875 42.117188 L 164.097656 49.945312 "/>
</g>
<path style=" stroke:none;fill-rule:nonzero;fill:rgb(90.039062%,90.039062%,90.039062%);fill-opacity:1;" d="M 176.636719 27.292969 C 176.941406 26.941406 177.234375 26.570312 177.511719 26.1875 C 182.757812 18.96875 181.15625 8.863281 173.9375 3.621094 C 166.71875 -1.625 156.613281 -0.0234375 151.367188 7.195312 C 151.089844 7.578125 150.828125 7.96875 150.589844 8.367188 L 157.878906 12.75 C 157.992188 12.558594 158.117188 12.375 158.246094 12.191406 C 160.734375 8.773438 165.519531 8.015625 168.9375 10.5 C 172.359375 12.984375 173.117188 17.769531 170.632812 21.191406 C 170.5 21.371094 170.363281 21.546875 170.21875 21.710938 L 176.636719 27.292969 "/>
<path style=" stroke:none;fill-rule:nonzero;fill:rgb(90.039062%,90.039062%,90.039062%);fill-opacity:1;" d="M 158.964844 8.367188 C 158.722656 7.96875 158.464844 7.578125 158.183594 7.195312 C 152.9375 -0.0234375 142.835938 -1.625 135.617188 3.621094 C 128.394531 8.863281 126.796875 18.96875 132.039062 26.1875 C 132.320312 26.570312 132.613281 26.941406 132.917969 27.292969 L 139.335938 21.710938 C 139.191406 21.546875 139.054688 21.371094 138.921875 21.191406 C 136.4375 17.769531 137.195312 12.984375 140.613281 10.5 C 144.035156 8.015625 148.820312 8.773438 151.304688 12.191406 C 151.4375 12.375 151.558594 12.558594 151.675781 12.75 L 158.964844 8.367188 "/>
<path style=" stroke:none;fill-rule:nonzero;fill:rgb(90.039062%,90.039062%,90.039062%);fill-opacity:1;" d="M 135.503906 19.328125 C 135.050781 19.433594 134.597656 19.558594 134.148438 19.707031 C 125.660156 22.464844 121.015625 31.578125 123.773438 40.066406 C 126.53125 48.550781 135.644531 53.195312 144.132812 50.4375 C 144.585938 50.292969 145.023438 50.128906 145.453125 49.945312 L 142.132812 42.117188 C 141.929688 42.203125 141.71875 42.28125 141.503906 42.351562 C 137.484375 43.65625 133.167969 41.457031 131.859375 37.4375 C 130.554688 33.417969 132.753906 29.101562 136.773438 27.792969 C 136.988281 27.722656 137.203125 27.664062 137.417969 27.613281 L 135.503906 19.328125 "/>
<path style=" stroke:none;fill-rule:nonzero;fill:rgb(87.109375%,1.171875%,14.0625%);fill-opacity:1;" d="M 140.035156 46.433594 C 140.035156 54.574219 146.636719 61.171875 154.777344 61.171875 C 162.917969 61.171875 169.515625 54.574219 169.515625 46.433594 L 163.847656 46.433594 C 163.847656 51.441406 159.785156 55.503906 154.777344 55.503906 C 149.765625 55.503906 145.707031 51.441406 145.707031 46.433594 L 140.035156 46.433594 "/>
<path style=" stroke:none;fill-rule:nonzero;fill:rgb(87.109375%,1.171875%,14.0625%);fill-opacity:1;" d="M 168.101562 46.433594 C 168.101562 39.074219 162.136719 33.109375 154.777344 33.109375 C 147.417969 33.109375 141.453125 39.074219 141.453125 46.433594 L 144.289062 46.433594 C 144.289062 40.640625 148.984375 35.945312 154.777344 35.945312 C 160.570312 35.945312 165.265625 40.640625 165.265625 46.433594 L 168.101562 46.433594 "/>
<path style=" stroke:none;fill-rule:nonzero;fill:rgb(87.109375%,1.171875%,14.0625%);fill-opacity:1;" d="M 165.859375 49.089844 C 173.601562 51.605469 181.914062 47.371094 184.433594 39.628906 C 186.945312 31.886719 182.710938 23.570312 174.96875 21.054688 L 173.214844 26.445312 C 177.980469 27.992188 180.589844 33.109375 179.039062 37.875 C 177.492188 42.640625 172.375 45.246094 167.609375 43.699219 L 165.859375 49.089844 "/>
<path style=" stroke:none;fill-rule:nonzero;fill:rgb(87.109375%,1.171875%,14.0625%);fill-opacity:1;" d="M 174.53125 22.402344 C 167.53125 20.128906 160.015625 23.957031 157.742188 30.957031 C 155.46875 37.953125 159.296875 45.46875 166.296875 47.742188 L 167.171875 45.046875 C 161.664062 43.257812 158.648438 37.339844 160.4375 31.832031 C 162.226562 26.324219 168.144531 23.308594 173.652344 25.097656 L 174.53125 22.402344 "/>
<path style=" stroke:none;fill-rule:nonzero;fill:rgb(87.109375%,1.171875%,14.0625%);fill-opacity:1;" d="M 176.367188 25.355469 C 181.148438 18.769531 179.691406 9.550781 173.105469 4.765625 C 166.519531 -0.0195312 157.300781 1.441406 152.515625 8.027344 L 157.101562 11.359375 C 160.046875 7.304688 165.71875 6.40625 169.773438 9.351562 C 173.824219 12.296875 174.722656 17.96875 171.777344 22.023438 L 176.367188 25.355469 "/>
<path style=" stroke:none;fill-rule:nonzero;fill:rgb(87.109375%,1.171875%,14.0625%);fill-opacity:1;" d="M 153.660156 8.859375 C 149.335938 14.8125 150.65625 23.144531 156.609375 27.46875 C 162.5625 31.792969 170.894531 30.476562 175.21875 24.523438 L 172.925781 22.855469 C 169.519531 27.542969 162.960938 28.582031 158.277344 25.175781 C 153.589844 21.769531 152.550781 15.210938 155.953125 10.527344 L 153.660156 8.859375 "/>
<path style=" stroke:none;fill-rule:nonzero;fill:rgb(87.109375%,1.171875%,14.0625%);fill-opacity:1;" d="M 157.039062 8.027344 C 152.253906 1.441406 143.035156 -0.0195312 136.449219 4.765625 C 129.863281 9.550781 128.402344 18.769531 133.1875 25.355469 L 137.773438 22.023438 C 134.828125 17.96875 135.726562 12.296875 139.78125 9.351562 C 143.835938 6.40625 149.507812 7.304688 152.453125 11.359375 L 157.039062 8.027344 "/>
<path style=" stroke:none;fill-rule:nonzero;fill:rgb(87.109375%,1.171875%,14.0625%);fill-opacity:1;" d="M 134.335938 24.523438 C 138.660156 30.476562 146.992188 31.792969 152.945312 27.46875 C 158.894531 23.144531 160.214844 14.8125 155.890625 8.859375 L 153.597656 10.527344 C 157.003906 15.210938 155.964844 21.769531 151.277344 25.175781 C 146.589844 28.582031 140.03125 27.542969 136.628906 22.855469 L 134.335938 24.523438 "/>
<path style=" stroke:none;fill-rule:nonzero;fill:rgb(87.109375%,1.171875%,14.0625%);fill-opacity:1;" d="M 134.585938 21.054688 C 126.84375 23.570312 122.605469 31.886719 125.121094 39.628906 C 127.636719 47.371094 135.953125 51.605469 143.695312 49.089844 L 141.941406 43.699219 C 137.179688 45.246094 132.0625 42.640625 130.515625 37.875 C 128.964844 33.109375 131.574219 27.992188 136.339844 26.445312 L 134.585938 21.054688 "/>
<path style=" stroke:none;fill-rule:nonzero;fill:rgb(87.109375%,1.171875%,14.0625%);fill-opacity:1;" d="M 143.257812 47.742188 C 150.253906 45.46875 154.085938 37.953125 151.8125 30.957031 C 149.539062 23.957031 142.019531 20.128906 135.023438 22.402344 L 135.898438 25.097656 C 141.40625 23.308594 147.324219 26.324219 149.113281 31.832031 C 150.90625 37.339844 147.890625 43.257812 142.382812 45.046875 L 143.257812 47.742188 "/>
<g clip-path="url(#clip2)" clip-rule="nonzero">
<path style=" stroke:none;fill-rule:nonzero;fill:rgb(90.039062%,90.039062%,90.039062%);fill-opacity:1;" d="M 60.097656 91.789062 C 76.539062 91.789062 89.863281 78.460938 89.863281 62.023438 C 89.863281 53.804688 86.53125 46.363281 81.144531 40.976562 L 76.136719 45.988281 C 80.238281 50.09375 82.777344 55.761719 82.777344 62.023438 C 82.777344 74.546875 72.625 84.699219 60.097656 84.699219 L 60.097656 91.789062 "/>
</g>
<path style=" stroke:none;fill-rule:nonzero;fill:rgb(95.701599%,75.78125%,0%);fill-opacity:1;" d="M 60.097656 90.371094 C 75.753906 90.371094 88.445312 77.679688 88.445312 62.023438 C 88.445312 54.195312 85.273438 47.109375 80.144531 41.980469 L 77.136719 44.984375 C 81.496094 49.347656 84.195312 55.371094 84.195312 62.023438 C 84.195312 75.332031 73.40625 86.117188 60.097656 86.117188 L 60.097656 90.371094 "/>
<path style=" stroke:none;fill-rule:nonzero;fill:rgb(90.039062%,90.039062%,90.039062%);fill-opacity:1;" d="M 81.144531 40.976562 C 75.757812 35.589844 68.320312 32.261719 60.097656 32.261719 C 59.753906 32.261719 59.40625 32.265625 59.0625 32.277344 L 59.308594 39.359375 C 59.570312 39.351562 59.835938 39.347656 60.097656 39.347656 C 66.363281 39.347656 72.03125 41.882812 76.136719 45.988281 L 81.144531 40.976562 "/>
<path style=" stroke:none;fill-rule:nonzero;fill:rgb(95.701599%,75.78125%,0%);fill-opacity:1;" d="M 80.144531 41.980469 C 75.015625 36.851562 67.925781 33.675781 60.097656 33.675781 L 60.097656 37.929688 C 66.753906 37.929688 72.777344 40.625 77.136719 44.984375 L 80.144531 41.980469 "/>
<path style=" stroke:none;fill-rule:nonzero;fill:rgb(90.039062%,90.039062%,90.039062%);fill-opacity:1;" d="M 59.0625 32.277344 C 51.253906 32.546875 44.210938 35.820312 39.054688 40.976562 L 44.066406 45.988281 C 47.996094 42.058594 53.359375 39.5625 59.308594 39.359375 L 59.0625 32.277344 "/>
<path style=" stroke:none;fill-rule:nonzero;fill:rgb(95.701599%,75.78125%,0%);fill-opacity:1;" d="M 60.097656 33.675781 C 52.273438 33.675781 45.183594 36.851562 40.054688 41.980469 L 43.0625 44.984375 C 47.421875 40.625 53.445312 37.929688 60.097656 37.929688 L 60.097656 33.675781 "/>
<g clip-path="url(#clip3)" clip-rule="nonzero">
<path style=" stroke:none;fill-rule:nonzero;fill:rgb(90.039062%,90.039062%,90.039062%);fill-opacity:1;" d="M 39.054688 40.976562 C 33.667969 46.363281 30.335938 53.804688 30.335938 62.023438 C 30.335938 78.460938 43.660156 91.789062 60.097656 91.789062 L 60.097656 84.699219 C 47.574219 84.699219 37.421875 74.546875 37.421875 62.023438 C 37.421875 55.761719 39.960938 50.09375 44.066406 45.988281 L 39.054688 40.976562 "/>
</g>
<path style=" stroke:none;fill-rule:nonzero;fill:rgb(95.701599%,75.78125%,0%);fill-opacity:1;" d="M 40.054688 41.980469 C 34.925781 47.109375 31.753906 54.195312 31.753906 62.023438 C 31.753906 77.679688 44.445312 90.371094 60.097656 90.371094 L 60.097656 86.117188 C 46.792969 86.117188 36.003906 75.332031 36.003906 62.023438 C 36.003906 55.371094 38.703125 49.347656 43.0625 44.984375 L 40.054688 41.980469 "/>
<path style="fill:none;stroke-width:3;stroke-linecap:round;stroke-linejoin:round;stroke:rgb(95.701599%,75.78125%,0%);stroke-opacity:1;stroke-miterlimit:10;" d="M 843.125 326.346875 L 841.015625 338.378125 " transform="matrix(0.1,0,0,-0.1,0,91.83)"/>
<path style="fill:none;stroke-width:3;stroke-linecap:round;stroke-linejoin:round;stroke:rgb(95.701599%,75.78125%,0%);stroke-opacity:1;stroke-miterlimit:10;" d="M 841.015625 338.378125 L 838.203125 354.276562 " transform="matrix(0.1,0,0,-0.1,0,91.83)"/>
<path style="fill:none;stroke-width:3;stroke-linecap:round;stroke-linejoin:round;stroke:rgb(95.701599%,75.78125%,0%);stroke-opacity:1;stroke-miterlimit:10;" d="M 838.203125 354.276562 L 829.882812 377.167187 " transform="matrix(0.1,0,0,-0.1,0,91.83)"/>
<path style="fill:none;stroke-width:3;stroke-linecap:round;stroke-linejoin:round;stroke:rgb(95.701599%,75.78125%,0%);stroke-opacity:1;stroke-miterlimit:10;" d="M 829.882812 377.167187 L 818.828125 407.479687 " transform="matrix(0.1,0,0,-0.1,0,91.83)"/>
<path style="fill:none;stroke-width:3;stroke-linecap:round;stroke-linejoin:round;stroke:rgb(95.701599%,75.78125%,0%);stroke-opacity:1;stroke-miterlimit:10;" d="M 830.078125 381.425 L 811.875 412.9875 " transform="matrix(0.1,0,0,-0.1,0,91.83)"/>
<path style="fill:none;stroke-width:3;stroke-linecap:round;stroke-linejoin:round;stroke:rgb(95.701599%,75.78125%,0%);stroke-opacity:1;stroke-miterlimit:10;" d="M 811.875 412.9875 L 787.734375 454.745312 " transform="matrix(0.1,0,0,-0.1,0,91.83)"/>
<path style="fill:none;stroke-width:3;stroke-linecap:round;stroke-linejoin:round;stroke:rgb(95.701599%,75.78125%,0%);stroke-opacity:1;stroke-miterlimit:10;" d="M 818.828125 407.479687 L 787.773438 444.510937 " transform="matrix(0.1,0,0,-0.1,0,91.83)"/>
<path style="fill:none;stroke-width:3;stroke-linecap:round;stroke-linejoin:round;stroke:rgb(95.701599%,75.78125%,0%);stroke-opacity:1;stroke-miterlimit:10;" d="M 787.773438 444.510937 L 746.5625 493.6125 " transform="matrix(0.1,0,0,-0.1,0,91.83)"/>
<path style="fill:none;stroke-width:3;stroke-linecap:round;stroke-linejoin:round;stroke:rgb(95.701599%,75.78125%,0%);stroke-opacity:1;stroke-miterlimit:10;" d="M 804.6875 432.010937 L 758.59375 470.682812 " transform="matrix(0.1,0,0,-0.1,0,91.83)"/>
<path style="fill:none;stroke-width:3;stroke-linecap:round;stroke-linejoin:round;stroke:rgb(95.701599%,75.78125%,0%);stroke-opacity:1;stroke-miterlimit:10;" d="M 758.59375 470.682812 L 697.539062 521.89375 " transform="matrix(0.1,0,0,-0.1,0,91.83)"/>
<path style="fill:none;stroke-width:3;stroke-linecap:round;stroke-linejoin:round;stroke:rgb(95.701599%,75.78125%,0%);stroke-opacity:1;stroke-miterlimit:10;" d="M 787.734375 454.745312 L 725.664062 490.604687 " transform="matrix(0.1,0,0,-0.1,0,91.83)"/>
<path style="fill:none;stroke-width:3;stroke-linecap:round;stroke-linejoin:round;stroke:rgb(95.701599%,75.78125%,0%);stroke-opacity:1;stroke-miterlimit:10;" d="M 725.664062 490.604687 L 643.320312 538.14375 " transform="matrix(0.1,0,0,-0.1,0,91.83)"/>
<path style="fill:none;stroke-width:3;stroke-linecap:round;stroke-linejoin:round;stroke:rgb(95.701599%,75.78125%,0%);stroke-opacity:1;stroke-miterlimit:10;" d="M 768.28125 475.370312 L 690.273438 503.76875 " transform="matrix(0.1,0,0,-0.1,0,91.83)"/>
<path style="fill:none;stroke-width:3;stroke-linecap:round;stroke-linejoin:round;stroke:rgb(95.701599%,75.78125%,0%);stroke-opacity:1;stroke-miterlimit:10;" d="M 690.273438 503.76875 L 586.835938 541.425 " transform="matrix(0.1,0,0,-0.1,0,91.83)"/>
<path style="fill:none;stroke-width:3;stroke-linecap:round;stroke-linejoin:round;stroke:rgb(95.701599%,75.78125%,0%);stroke-opacity:1;stroke-miterlimit:10;" d="M 746.5625 493.6125 L 653.90625 509.940625 " transform="matrix(0.1,0,0,-0.1,0,91.83)"/>
<path style="fill:none;stroke-width:3;stroke-linecap:round;stroke-linejoin:round;stroke:rgb(95.701599%,75.78125%,0%);stroke-opacity:1;stroke-miterlimit:10;" d="M 653.90625 509.940625 L 531.09375 531.620312 " transform="matrix(0.1,0,0,-0.1,0,91.83)"/>
<path style="fill:none;stroke-width:3;stroke-linecap:round;stroke-linejoin:round;stroke:rgb(95.701599%,75.78125%,0%);stroke-opacity:1;stroke-miterlimit:10;" d="M 722.890625 509.198437 L 618.046875 509.198437 " transform="matrix(0.1,0,0,-0.1,0,91.83)"/>
<path style="fill:none;stroke-width:3;stroke-linecap:round;stroke-linejoin:round;stroke:rgb(95.701599%,75.78125%,0%);stroke-opacity:1;stroke-miterlimit:10;" d="M 618.046875 509.198437 L 479.101562 509.198437 " transform="matrix(0.1,0,0,-0.1,0,91.83)"/>
<path style="fill:none;stroke-width:3;stroke-linecap:round;stroke-linejoin:round;stroke:rgb(95.701599%,75.78125%,0%);stroke-opacity:1;stroke-miterlimit:10;" d="M 697.539062 521.89375 L 584.101562 501.89375 " transform="matrix(0.1,0,0,-0.1,0,91.83)"/>
<path style="fill:none;stroke-width:3;stroke-linecap:round;stroke-linejoin:round;stroke:rgb(95.701599%,75.78125%,0%);stroke-opacity:1;stroke-miterlimit:10;" d="M 584.101562 501.89375 L 433.710938 475.370312 " transform="matrix(0.1,0,0,-0.1,0,91.83)"/>
<path style="fill:none;stroke-width:3;stroke-linecap:round;stroke-linejoin:round;stroke:rgb(95.701599%,75.78125%,0%);stroke-opacity:1;stroke-miterlimit:10;" d="M 670.898438 531.620312 L 553.28125 488.76875 " transform="matrix(0.1,0,0,-0.1,0,91.83)"/>
<path style="fill:none;stroke-width:3;stroke-linecap:round;stroke-linejoin:round;stroke:rgb(95.701599%,75.78125%,0%);stroke-opacity:1;stroke-miterlimit:10;" d="M 553.28125 488.76875 L 397.304688 432.010937 " transform="matrix(0.1,0,0,-0.1,0,91.83)"/>
<path style="fill:none;stroke-width:3;stroke-linecap:round;stroke-linejoin:round;stroke:rgb(95.701599%,75.78125%,0%);stroke-opacity:1;stroke-miterlimit:10;" d="M 643.320312 538.14375 L 526.601562 470.760937 " transform="matrix(0.1,0,0,-0.1,0,91.83)"/>
<path style="fill:none;stroke-width:3;stroke-linecap:round;stroke-linejoin:round;stroke:rgb(95.701599%,75.78125%,0%);stroke-opacity:1;stroke-miterlimit:10;" d="M 526.601562 470.760937 L 371.914062 381.425 " transform="matrix(0.1,0,0,-0.1,0,91.83)"/>
<path style="fill:none;stroke-width:3;stroke-linecap:round;stroke-linejoin:round;stroke:rgb(95.701599%,75.78125%,0%);stroke-opacity:1;stroke-miterlimit:10;" d="M 615.15625 541.425 L 504.960938 448.964062 " transform="matrix(0.1,0,0,-0.1,0,91.83)"/>
<path style="fill:none;stroke-width:3;stroke-linecap:round;stroke-linejoin:round;stroke:rgb(95.701599%,75.78125%,0%);stroke-opacity:1;stroke-miterlimit:10;" d="M 504.960938 448.964062 L 358.867188 326.346875 " transform="matrix(0.1,0,0,-0.1,0,91.83)"/>
<path style="fill:none;stroke-width:3;stroke-linecap:round;stroke-linejoin:round;stroke:rgb(95.701599%,75.78125%,0%);stroke-opacity:1;stroke-miterlimit:10;" d="M 586.835938 541.425 L 488.789062 424.628125 " transform="matrix(0.1,0,0,-0.1,0,91.83)"/>
<path style="fill:none;stroke-width:3;stroke-linecap:round;stroke-linejoin:round;stroke:rgb(95.701599%,75.78125%,0%);stroke-opacity:1;stroke-miterlimit:10;" d="M 488.789062 424.628125 L 358.867188 269.745312 " transform="matrix(0.1,0,0,-0.1,0,91.83)"/>
<path style="fill:none;stroke-width:3;stroke-linecap:round;stroke-linejoin:round;stroke:rgb(95.701599%,75.78125%,0%);stroke-opacity:1;stroke-miterlimit:10;" d="M 558.671875 538.14375 L 478.359375 399.042187 " transform="matrix(0.1,0,0,-0.1,0,91.83)"/>
<path style="fill:none;stroke-width:3;stroke-linecap:round;stroke-linejoin:round;stroke:rgb(95.701599%,75.78125%,0%);stroke-opacity:1;stroke-miterlimit:10;" d="M 478.359375 399.042187 L 371.914062 214.667187 " transform="matrix(0.1,0,0,-0.1,0,91.83)"/>
<path style="fill:none;stroke-width:3;stroke-linecap:round;stroke-linejoin:round;stroke:rgb(95.701599%,75.78125%,0%);stroke-opacity:1;stroke-miterlimit:10;" d="M 531.09375 531.620312 L 473.554688 373.573437 " transform="matrix(0.1,0,0,-0.1,0,91.83)"/>
<path style="fill:none;stroke-width:3;stroke-linecap:round;stroke-linejoin:round;stroke:rgb(95.701599%,75.78125%,0%);stroke-opacity:1;stroke-miterlimit:10;" d="M 473.554688 373.573437 L 397.304688 164.120312 " transform="matrix(0.1,0,0,-0.1,0,91.83)"/>
<path style="fill:none;stroke-width:3;stroke-linecap:round;stroke-linejoin:round;stroke:rgb(95.701599%,75.78125%,0%);stroke-opacity:1;stroke-miterlimit:10;" d="M 504.453125 521.89375 L 474.023438 349.39375 " transform="matrix(0.1,0,0,-0.1,0,91.83)"/>
<path style="fill:none;stroke-width:3;stroke-linecap:round;stroke-linejoin:round;stroke:rgb(95.701599%,75.78125%,0%);stroke-opacity:1;stroke-miterlimit:10;" d="M 474.023438 349.39375 L 433.710938 120.760937 " transform="matrix(0.1,0,0,-0.1,0,91.83)"/>
<path style="fill:none;stroke-width:3;stroke-linecap:round;stroke-linejoin:round;stroke:rgb(95.701599%,75.78125%,0%);stroke-opacity:1;stroke-miterlimit:10;" d="M 479.101562 509.198437 L 479.101562 327.635937 " transform="matrix(0.1,0,0,-0.1,0,91.83)"/>
<path style="fill:none;stroke-width:3;stroke-linecap:round;stroke-linejoin:round;stroke:rgb(95.701599%,75.78125%,0%);stroke-opacity:1;stroke-miterlimit:10;" d="M 479.101562 327.635937 L 479.101562 86.932812 " transform="matrix(0.1,0,0,-0.1,0,91.83)"/>
<path style="fill:none;stroke-width:3;stroke-linecap:round;stroke-linejoin:round;stroke:rgb(95.701599%,75.78125%,0%);stroke-opacity:1;stroke-miterlimit:10;" d="M 455.429688 493.6125 L 487.96875 309.120312 " transform="matrix(0.1,0,0,-0.1,0,91.83)"/>
<path style="fill:none;stroke-width:3;stroke-linecap:round;stroke-linejoin:round;stroke:rgb(95.701599%,75.78125%,0%);stroke-opacity:1;stroke-miterlimit:10;" d="M 487.96875 309.120312 L 531.09375 64.510937 " transform="matrix(0.1,0,0,-0.1,0,91.83)"/>
<path style="fill:none;stroke-width:3;stroke-linecap:round;stroke-linejoin:round;stroke:rgb(95.701599%,75.78125%,0%);stroke-opacity:1;stroke-miterlimit:10;" d="M 433.710938 475.370312 L 499.53125 294.471875 " transform="matrix(0.1,0,0,-0.1,0,91.83)"/>
<path style="fill:none;stroke-width:3;stroke-linecap:round;stroke-linejoin:round;stroke:rgb(95.701599%,75.78125%,0%);stroke-opacity:1;stroke-miterlimit:10;" d="M 499.53125 294.471875 L 586.835938 54.70625 " transform="matrix(0.1,0,0,-0.1,0,91.83)"/>
<path style="fill:none;stroke-width:3;stroke-linecap:round;stroke-linejoin:round;stroke:rgb(95.701599%,75.78125%,0%);stroke-opacity:1;stroke-miterlimit:10;" d="M 414.257812 454.745312 L 512.773438 284.159375 " transform="matrix(0.1,0,0,-0.1,0,91.83)"/>
<path style="fill:none;stroke-width:3;stroke-linecap:round;stroke-linejoin:round;stroke:rgb(95.701599%,75.78125%,0%);stroke-opacity:1;stroke-miterlimit:10;" d="M 512.773438 284.159375 L 643.320312 57.9875 " transform="matrix(0.1,0,0,-0.1,0,91.83)"/>
<path style="fill:none;stroke-width:3;stroke-linecap:round;stroke-linejoin:round;stroke:rgb(95.701599%,75.78125%,0%);stroke-opacity:1;stroke-miterlimit:10;" d="M 397.304688 432.010937 L 526.40625 278.182812 " transform="matrix(0.1,0,0,-0.1,0,91.83)"/>
<path style="fill:none;stroke-width:3;stroke-linecap:round;stroke-linejoin:round;stroke:rgb(95.701599%,75.78125%,0%);stroke-opacity:1;stroke-miterlimit:10;" d="M 526.40625 278.182812 L 697.539062 74.2375 " transform="matrix(0.1,0,0,-0.1,0,91.83)"/>
<path style="fill:none;stroke-width:3;stroke-linecap:round;stroke-linejoin:round;stroke:rgb(95.701599%,75.78125%,0%);stroke-opacity:1;stroke-miterlimit:10;" d="M 383.164062 407.479687 L 539.414062 276.346875 " transform="matrix(0.1,0,0,-0.1,0,91.83)"/>
<path style="fill:none;stroke-width:3;stroke-linecap:round;stroke-linejoin:round;stroke:rgb(95.701599%,75.78125%,0%);stroke-opacity:1;stroke-miterlimit:10;" d="M 539.414062 276.346875 L 746.5625 102.51875 " transform="matrix(0.1,0,0,-0.1,0,91.83)"/>
<path style="fill:none;stroke-width:3;stroke-linecap:round;stroke-linejoin:round;stroke:rgb(95.701599%,75.78125%,0%);stroke-opacity:1;stroke-miterlimit:10;" d="M 371.914062 381.425 L 550.742188 278.221875 " transform="matrix(0.1,0,0,-0.1,0,91.83)"/>
<path style="fill:none;stroke-width:3;stroke-linecap:round;stroke-linejoin:round;stroke:rgb(95.701599%,75.78125%,0%);stroke-opacity:1;stroke-miterlimit:10;" d="M 550.742188 278.221875 L 787.734375 141.346875 " transform="matrix(0.1,0,0,-0.1,0,91.83)"/>
<path style="fill:none;stroke-width:3;stroke-linecap:round;stroke-linejoin:round;stroke:rgb(95.701599%,75.78125%,0%);stroke-opacity:1;stroke-miterlimit:10;" d="M 363.789062 354.276562 L 559.453125 283.065625 " transform="matrix(0.1,0,0,-0.1,0,91.83)"/>
<path style="fill:none;stroke-width:3;stroke-linecap:round;stroke-linejoin:round;stroke:rgb(95.701599%,75.78125%,0%);stroke-opacity:1;stroke-miterlimit:10;" d="M 559.453125 283.065625 L 818.828125 188.651562 " transform="matrix(0.1,0,0,-0.1,0,91.83)"/>
<path style="fill:none;stroke-width:3;stroke-linecap:round;stroke-linejoin:round;stroke:rgb(95.701599%,75.78125%,0%);stroke-opacity:1;stroke-miterlimit:10;" d="M 358.867188 326.346875 L 564.960938 290.01875 " transform="matrix(0.1,0,0,-0.1,0,91.83)"/>
<path style="fill:none;stroke-width:3;stroke-linecap:round;stroke-linejoin:round;stroke:rgb(95.701599%,75.78125%,0%);stroke-opacity:1;stroke-miterlimit:10;" d="M 564.960938 290.01875 L 838.203125 241.854687 " transform="matrix(0.1,0,0,-0.1,0,91.83)"/>
<path style="fill:none;stroke-width:3;stroke-linecap:round;stroke-linejoin:round;stroke:rgb(95.701599%,75.78125%,0%);stroke-opacity:1;stroke-miterlimit:10;" d="M 357.226562 298.065625 L 566.875 298.065625 " transform="matrix(0.1,0,0,-0.1,0,91.83)"/>
<path style="fill:none;stroke-width:3;stroke-linecap:round;stroke-linejoin:round;stroke:rgb(95.701599%,75.78125%,0%);stroke-opacity:1;stroke-miterlimit:10;" d="M 566.875 298.065625 L 844.765625 298.065625 " transform="matrix(0.1,0,0,-0.1,0,91.83)"/>
<path style="fill:none;stroke-width:3;stroke-linecap:round;stroke-linejoin:round;stroke:rgb(95.701599%,75.78125%,0%);stroke-opacity:1;stroke-miterlimit:10;" d="M 358.867188 269.745312 L 564.960938 306.1125 " transform="matrix(0.1,0,0,-0.1,0,91.83)"/>
<path style="fill:none;stroke-width:3;stroke-linecap:round;stroke-linejoin:round;stroke:rgb(95.701599%,75.78125%,0%);stroke-opacity:1;stroke-miterlimit:10;" d="M 564.960938 306.1125 L 838.203125 354.276562 " transform="matrix(0.1,0,0,-0.1,0,91.83)"/>
<path style="fill:none;stroke-width:3;stroke-linecap:round;stroke-linejoin:round;stroke:rgb(95.701599%,75.78125%,0%);stroke-opacity:1;stroke-miterlimit:10;" d="M 363.789062 241.854687 L 559.453125 313.065625 " transform="matrix(0.1,0,0,-0.1,0,91.83)"/>
<path style="fill:none;stroke-width:3;stroke-linecap:round;stroke-linejoin:round;stroke:rgb(95.701599%,75.78125%,0%);stroke-opacity:1;stroke-miterlimit:10;" d="M 559.453125 313.065625 L 818.828125 407.479687 " transform="matrix(0.1,0,0,-0.1,0,91.83)"/>
<path style="fill:none;stroke-width:3;stroke-linecap:round;stroke-linejoin:round;stroke:rgb(95.701599%,75.78125%,0%);stroke-opacity:1;stroke-miterlimit:10;" d="M 371.914062 214.667187 L 550.742188 317.909375 " transform="matrix(0.1,0,0,-0.1,0,91.83)"/>
<path style="fill:none;stroke-width:3;stroke-linecap:round;stroke-linejoin:round;stroke:rgb(95.701599%,75.78125%,0%);stroke-opacity:1;stroke-miterlimit:10;" d="M 550.742188 317.909375 L 787.734375 454.745312 " transform="matrix(0.1,0,0,-0.1,0,91.83)"/>
<path style="fill:none;stroke-width:3;stroke-linecap:round;stroke-linejoin:round;stroke:rgb(95.701599%,75.78125%,0%);stroke-opacity:1;stroke-miterlimit:10;" d="M 383.164062 188.651562 L 539.414062 319.784375 " transform="matrix(0.1,0,0,-0.1,0,91.83)"/>
<path style="fill:none;stroke-width:3;stroke-linecap:round;stroke-linejoin:round;stroke:rgb(95.701599%,75.78125%,0%);stroke-opacity:1;stroke-miterlimit:10;" d="M 539.414062 319.784375 L 746.5625 493.6125 " transform="matrix(0.1,0,0,-0.1,0,91.83)"/>
<path style="fill:none;stroke-width:3;stroke-linecap:round;stroke-linejoin:round;stroke:rgb(95.701599%,75.78125%,0%);stroke-opacity:1;stroke-miterlimit:10;" d="M 397.304688 164.120312 L 526.40625 317.948437 " transform="matrix(0.1,0,0,-0.1,0,91.83)"/>
<path style="fill:none;stroke-width:3;stroke-linecap:round;stroke-linejoin:round;stroke:rgb(95.701599%,75.78125%,0%);stroke-opacity:1;stroke-miterlimit:10;" d="M 526.40625 317.948437 L 697.539062 521.89375 " transform="matrix(0.1,0,0,-0.1,0,91.83)"/>
<path style="fill:none;stroke-width:3;stroke-linecap:round;stroke-linejoin:round;stroke:rgb(95.701599%,75.78125%,0%);stroke-opacity:1;stroke-miterlimit:10;" d="M 414.257812 141.346875 L 512.773438 311.971875 " transform="matrix(0.1,0,0,-0.1,0,91.83)"/>
<path style="fill:none;stroke-width:3;stroke-linecap:round;stroke-linejoin:round;stroke:rgb(95.701599%,75.78125%,0%);stroke-opacity:1;stroke-miterlimit:10;" d="M 512.773438 311.971875 L 643.320312 538.14375 " transform="matrix(0.1,0,0,-0.1,0,91.83)"/>
<path style="fill:none;stroke-width:3;stroke-linecap:round;stroke-linejoin:round;stroke:rgb(95.701599%,75.78125%,0%);stroke-opacity:1;stroke-miterlimit:10;" d="M 433.710938 120.760937 L 499.53125 301.659375 " transform="matrix(0.1,0,0,-0.1,0,91.83)"/>
<path style="fill:none;stroke-width:3;stroke-linecap:round;stroke-linejoin:round;stroke:rgb(95.701599%,75.78125%,0%);stroke-opacity:1;stroke-miterlimit:10;" d="M 499.53125 301.659375 L 586.835938 541.425 " transform="matrix(0.1,0,0,-0.1,0,91.83)"/>
<path style="fill:none;stroke-width:3;stroke-linecap:round;stroke-linejoin:round;stroke:rgb(95.701599%,75.78125%,0%);stroke-opacity:1;stroke-miterlimit:10;" d="M 455.429688 102.51875 L 487.96875 287.010937 " transform="matrix(0.1,0,0,-0.1,0,91.83)"/>
<path style="fill:none;stroke-width:3;stroke-linecap:round;stroke-linejoin:round;stroke:rgb(95.701599%,75.78125%,0%);stroke-opacity:1;stroke-miterlimit:10;" d="M 487.96875 287.010937 L 531.09375 531.620312 " transform="matrix(0.1,0,0,-0.1,0,91.83)"/>
<path style="fill:none;stroke-width:3;stroke-linecap:round;stroke-linejoin:round;stroke:rgb(95.701599%,75.78125%,0%);stroke-opacity:1;stroke-miterlimit:10;" d="M 479.101562 86.932812 L 479.101562 268.495312 " transform="matrix(0.1,0,0,-0.1,0,91.83)"/>
<path style="fill:none;stroke-width:3;stroke-linecap:round;stroke-linejoin:round;stroke:rgb(95.701599%,75.78125%,0%);stroke-opacity:1;stroke-miterlimit:10;" d="M 479.101562 268.495312 L 479.101562 509.198437 " transform="matrix(0.1,0,0,-0.1,0,91.83)"/>
<path style="fill:none;stroke-width:3;stroke-linecap:round;stroke-linejoin:round;stroke:rgb(95.701599%,75.78125%,0%);stroke-opacity:1;stroke-miterlimit:10;" d="M 504.453125 74.2375 L 474.023438 246.7375 " transform="matrix(0.1,0,0,-0.1,0,91.83)"/>
<path style="fill:none;stroke-width:3;stroke-linecap:round;stroke-linejoin:round;stroke:rgb(95.701599%,75.78125%,0%);stroke-opacity:1;stroke-miterlimit:10;" d="M 474.023438 246.7375 L 433.710938 475.370312 " transform="matrix(0.1,0,0,-0.1,0,91.83)"/>
<path style="fill:none;stroke-width:3;stroke-linecap:round;stroke-linejoin:round;stroke:rgb(95.701599%,75.78125%,0%);stroke-opacity:1;stroke-miterlimit:10;" d="M 531.09375 64.510937 L 473.554688 222.557812 " transform="matrix(0.1,0,0,-0.1,0,91.83)"/>
<path style="fill:none;stroke-width:3;stroke-linecap:round;stroke-linejoin:round;stroke:rgb(95.701599%,75.78125%,0%);stroke-opacity:1;stroke-miterlimit:10;" d="M 473.554688 222.557812 L 397.304688 432.010937 " transform="matrix(0.1,0,0,-0.1,0,91.83)"/>
<path style="fill:none;stroke-width:3;stroke-linecap:round;stroke-linejoin:round;stroke:rgb(95.701599%,75.78125%,0%);stroke-opacity:1;stroke-miterlimit:10;" d="M 558.671875 57.9875 L 478.359375 197.089062 " transform="matrix(0.1,0,0,-0.1,0,91.83)"/>
<path style="fill:none;stroke-width:3;stroke-linecap:round;stroke-linejoin:round;stroke:rgb(95.701599%,75.78125%,0%);stroke-opacity:1;stroke-miterlimit:10;" d="M 478.359375 197.089062 L 371.914062 381.425 " transform="matrix(0.1,0,0,-0.1,0,91.83)"/>
<path style="fill:none;stroke-width:3;stroke-linecap:round;stroke-linejoin:round;stroke:rgb(95.701599%,75.78125%,0%);stroke-opacity:1;stroke-miterlimit:10;" d="M 586.835938 54.70625 L 488.789062 171.503125 " transform="matrix(0.1,0,0,-0.1,0,91.83)"/>
<path style="fill:none;stroke-width:3;stroke-linecap:round;stroke-linejoin:round;stroke:rgb(95.701599%,75.78125%,0%);stroke-opacity:1;stroke-miterlimit:10;" d="M 488.789062 171.503125 L 358.867188 326.346875 " transform="matrix(0.1,0,0,-0.1,0,91.83)"/>
<path style="fill:none;stroke-width:3;stroke-linecap:round;stroke-linejoin:round;stroke:rgb(95.701599%,75.78125%,0%);stroke-opacity:1;stroke-miterlimit:10;" d="M 615.15625 54.70625 L 504.960938 147.167187 " transform="matrix(0.1,0,0,-0.1,0,91.83)"/>
<path style="fill:none;stroke-width:3;stroke-linecap:round;stroke-linejoin:round;stroke:rgb(95.701599%,75.78125%,0%);stroke-opacity:1;stroke-miterlimit:10;" d="M 504.960938 147.167187 L 358.867188 269.745312 " transform="matrix(0.1,0,0,-0.1,0,91.83)"/>
<path style="fill:none;stroke-width:3;stroke-linecap:round;stroke-linejoin:round;stroke:rgb(95.701599%,75.78125%,0%);stroke-opacity:1;stroke-miterlimit:10;" d="M 643.320312 57.9875 L 526.601562 125.370312 " transform="matrix(0.1,0,0,-0.1,0,91.83)"/>
<path style="fill:none;stroke-width:3;stroke-linecap:round;stroke-linejoin:round;stroke:rgb(95.701599%,75.78125%,0%);stroke-opacity:1;stroke-miterlimit:10;" d="M 526.601562 125.370312 L 371.914062 214.667187 " transform="matrix(0.1,0,0,-0.1,0,91.83)"/>
<path style="fill:none;stroke-width:3;stroke-linecap:round;stroke-linejoin:round;stroke:rgb(95.701599%,75.78125%,0%);stroke-opacity:1;stroke-miterlimit:10;" d="M 670.898438 64.510937 L 553.28125 107.3625 " transform="matrix(0.1,0,0,-0.1,0,91.83)"/>
<path style="fill:none;stroke-width:3;stroke-linecap:round;stroke-linejoin:round;stroke:rgb(95.701599%,75.78125%,0%);stroke-opacity:1;stroke-miterlimit:10;" d="M 553.28125 107.3625 L 397.304688 164.120312 " transform="matrix(0.1,0,0,-0.1,0,91.83)"/>
<path style="fill:none;stroke-width:3;stroke-linecap:round;stroke-linejoin:round;stroke:rgb(95.701599%,75.78125%,0%);stroke-opacity:1;stroke-miterlimit:10;" d="M 697.539062 74.2375 L 584.101562 94.2375 " transform="matrix(0.1,0,0,-0.1,0,91.83)"/>
<path style="fill:none;stroke-width:3;stroke-linecap:round;stroke-linejoin:round;stroke:rgb(95.701599%,75.78125%,0%);stroke-opacity:1;stroke-miterlimit:10;" d="M 584.101562 94.2375 L 433.710938 120.760937 " transform="matrix(0.1,0,0,-0.1,0,91.83)"/>
<path style="fill:none;stroke-width:3;stroke-linecap:round;stroke-linejoin:round;stroke:rgb(95.701599%,75.78125%,0%);stroke-opacity:1;stroke-miterlimit:10;" d="M 722.890625 86.932812 L 618.046875 86.932812 " transform="matrix(0.1,0,0,-0.1,0,91.83)"/>
<path style="fill:none;stroke-width:3;stroke-linecap:round;stroke-linejoin:round;stroke:rgb(95.701599%,75.78125%,0%);stroke-opacity:1;stroke-miterlimit:10;" d="M 618.046875 86.932812 L 479.101562 86.932812 " transform="matrix(0.1,0,0,-0.1,0,91.83)"/>
<path style="fill:none;stroke-width:3;stroke-linecap:round;stroke-linejoin:round;stroke:rgb(95.701599%,75.78125%,0%);stroke-opacity:1;stroke-miterlimit:10;" d="M 746.5625 102.51875 L 653.90625 86.190625 " transform="matrix(0.1,0,0,-0.1,0,91.83)"/>
<path style="fill:none;stroke-width:3;stroke-linecap:round;stroke-linejoin:round;stroke:rgb(95.701599%,75.78125%,0%);stroke-opacity:1;stroke-miterlimit:10;" d="M 653.90625 86.190625 L 531.09375 64.510937 " transform="matrix(0.1,0,0,-0.1,0,91.83)"/>
<path style="fill:none;stroke-width:3;stroke-linecap:round;stroke-linejoin:round;stroke:rgb(95.701599%,75.78125%,0%);stroke-opacity:1;stroke-miterlimit:10;" d="M 768.28125 120.760937 L 690.273438 92.3625 " transform="matrix(0.1,0,0,-0.1,0,91.83)"/>
<path style="fill:none;stroke-width:3;stroke-linecap:round;stroke-linejoin:round;stroke:rgb(95.701599%,75.78125%,0%);stroke-opacity:1;stroke-miterlimit:10;" d="M 690.273438 92.3625 L 586.835938 54.70625 " transform="matrix(0.1,0,0,-0.1,0,91.83)"/>
<path style="fill:none;stroke-width:3;stroke-linecap:round;stroke-linejoin:round;stroke:rgb(95.701599%,75.78125%,0%);stroke-opacity:1;stroke-miterlimit:10;" d="M 787.734375 141.346875 L 725.664062 105.526562 " transform="matrix(0.1,0,0,-0.1,0,91.83)"/>
<path style="fill:none;stroke-width:3;stroke-linecap:round;stroke-linejoin:round;stroke:rgb(95.701599%,75.78125%,0%);stroke-opacity:1;stroke-miterlimit:10;" d="M 725.664062 105.526562 L 643.320312 57.9875 " transform="matrix(0.1,0,0,-0.1,0,91.83)"/>
<path style="fill:none;stroke-width:3;stroke-linecap:round;stroke-linejoin:round;stroke:rgb(95.701599%,75.78125%,0%);stroke-opacity:1;stroke-miterlimit:10;" d="M 804.6875 164.120312 L 758.59375 125.448437 " transform="matrix(0.1,0,0,-0.1,0,91.83)"/>
<path style="fill:none;stroke-width:3;stroke-linecap:round;stroke-linejoin:round;stroke:rgb(95.701599%,75.78125%,0%);stroke-opacity:1;stroke-miterlimit:10;" d="M 758.59375 125.448437 L 697.539062 74.2375 " transform="matrix(0.1,0,0,-0.1,0,91.83)"/>
<path style="fill:none;stroke-width:3;stroke-linecap:round;stroke-linejoin:round;stroke:rgb(95.701599%,75.78125%,0%);stroke-opacity:1;stroke-miterlimit:10;" d="M 818.828125 188.651562 L 787.773438 151.620312 " transform="matrix(0.1,0,0,-0.1,0,91.83)"/>
<path style="fill:none;stroke-width:3;stroke-linecap:round;stroke-linejoin:round;stroke:rgb(95.701599%,75.78125%,0%);stroke-opacity:1;stroke-miterlimit:10;" d="M 787.773438 151.620312 L 746.5625 102.51875 " transform="matrix(0.1,0,0,-0.1,0,91.83)"/>
<path style="fill:none;stroke-width:3;stroke-linecap:round;stroke-linejoin:round;stroke:rgb(95.701599%,75.78125%,0%);stroke-opacity:1;stroke-miterlimit:10;" d="M 830.078125 214.667187 L 811.875 183.14375 " transform="matrix(0.1,0,0,-0.1,0,91.83)"/>
<path style="fill:none;stroke-width:3;stroke-linecap:round;stroke-linejoin:round;stroke:rgb(95.701599%,75.78125%,0%);stroke-opacity:1;stroke-miterlimit:10;" d="M 811.875 183.14375 L 787.734375 141.346875 " transform="matrix(0.1,0,0,-0.1,0,91.83)"/>
<path style="fill:none;stroke-width:3;stroke-linecap:round;stroke-linejoin:round;stroke:rgb(95.701599%,75.78125%,0%);stroke-opacity:1;stroke-miterlimit:10;" d="M 838.203125 241.854687 L 829.882812 218.964062 " transform="matrix(0.1,0,0,-0.1,0,91.83)"/>
<path style="fill:none;stroke-width:3;stroke-linecap:round;stroke-linejoin:round;stroke:rgb(95.701599%,75.78125%,0%);stroke-opacity:1;stroke-miterlimit:10;" d="M 829.882812 218.964062 L 818.828125 188.651562 " transform="matrix(0.1,0,0,-0.1,0,91.83)"/>
<path style="fill:none;stroke-width:3;stroke-linecap:round;stroke-linejoin:round;stroke:rgb(95.701599%,75.78125%,0%);stroke-opacity:1;stroke-miterlimit:10;" d="M 843.125 269.745312 L 841.015625 257.753125 " transform="matrix(0.1,0,0,-0.1,0,91.83)"/>
<path style="fill:none;stroke-width:3;stroke-linecap:round;stroke-linejoin:round;stroke:rgb(95.701599%,75.78125%,0%);stroke-opacity:1;stroke-miterlimit:10;" d="M 841.015625 257.753125 L 838.203125 241.854687 " transform="matrix(0.1,0,0,-0.1,0,91.83)"/>
<g clip-path="url(#clip4)" clip-rule="nonzero">
<path style=" stroke:none;fill-rule:nonzero;fill:rgb(90.039062%,90.039062%,90.039062%);fill-opacity:1;" d="M 122.460938 91.828125 C 138.40625 91.828125 151.332031 78.105469 151.332031 61.171875 C 151.332031 50.785156 146.464844 41.601562 139.023438 36.058594 L 135.078125 42.039062 C 140.75 46.261719 144.460938 53.257812 144.460938 61.171875 C 144.460938 74.074219 134.609375 84.53125 122.460938 84.53125 L 122.460938 91.828125 "/>
</g>
<path style=" stroke:none;fill-rule:nonzero;fill:rgb(0.390625%,62.5%,23.826599%);fill-opacity:1;" d="M 122.460938 90.371094 C 137.648438 90.371094 149.957031 77.296875 149.957031 61.171875 C 149.957031 51.28125 145.324219 42.535156 138.234375 37.253906 L 135.867188 40.84375 C 141.894531 45.332031 145.835938 52.761719 145.835938 61.171875 C 145.835938 74.878906 135.371094 85.992188 122.460938 85.992188 L 122.460938 90.371094 "/>
<path style=" stroke:none;fill-rule:nonzero;fill:rgb(90.039062%,90.039062%,90.039062%);fill-opacity:1;" d="M 139.023438 36.058594 C 134.335938 32.566406 128.621094 30.515625 122.460938 30.515625 L 122.460938 37.816406 C 127.15625 37.816406 131.507812 39.378906 135.078125 42.039062 L 139.023438 36.058594 "/>
<path style=" stroke:none;fill-rule:nonzero;fill:rgb(0.390625%,62.5%,23.826599%);fill-opacity:1;" d="M 138.234375 37.253906 C 133.769531 33.929688 128.328125 31.976562 122.460938 31.976562 L 122.460938 36.355469 C 127.449219 36.355469 132.074219 38.015625 135.867188 40.84375 L 138.234375 37.253906 "/>
<path style=" stroke:none;fill-rule:nonzero;fill:rgb(90.039062%,90.039062%,90.039062%);fill-opacity:1;" d="M 122.460938 30.515625 C 114.488281 30.515625 107.269531 33.949219 102.046875 39.496094 L 106.90625 44.65625 C 110.886719 40.429688 116.386719 37.816406 122.460938 37.816406 L 122.460938 30.515625 "/>
<path style=" stroke:none;fill-rule:nonzero;fill:rgb(0.390625%,62.5%,23.826599%);fill-opacity:1;" d="M 122.460938 31.976562 C 114.867188 31.976562 107.996094 35.246094 103.019531 40.527344 L 105.9375 43.625 C 110.164062 39.132812 116.007812 36.355469 122.460938 36.355469 L 122.460938 31.976562 "/>
<g clip-path="url(#clip5)" clip-rule="nonzero">
<path style=" stroke:none;fill-rule:nonzero;fill:rgb(90.039062%,90.039062%,90.039062%);fill-opacity:1;" d="M 102.046875 39.496094 C 96.824219 45.042969 93.589844 52.707031 93.589844 61.171875 C 93.589844 78.105469 106.515625 91.828125 122.460938 91.828125 L 122.460938 84.53125 C 110.3125 84.53125 100.464844 74.074219 100.464844 61.171875 C 100.464844 54.722656 102.925781 48.882812 106.90625 44.65625 L 102.046875 39.496094 "/>
</g>
<path style=" stroke:none;fill-rule:nonzero;fill:rgb(0.390625%,62.5%,23.826599%);fill-opacity:1;" d="M 103.019531 40.527344 C 98.042969 45.8125 94.964844 53.109375 94.964844 61.171875 C 94.964844 77.296875 107.277344 90.371094 122.460938 90.371094 L 122.460938 85.992188 C 109.554688 85.992188 99.089844 74.878906 99.089844 61.171875 C 99.089844 54.320312 101.707031 48.117188 105.9375 43.625 L 103.019531 40.527344 "/>
<path style="fill:none;stroke-width:15;stroke-linecap:round;stroke-linejoin:round;stroke:rgb(0.390625%,62.5%,23.826599%);stroke-opacity:1;stroke-miterlimit:10;" d="M 1224.609375 363.260937 L 1224.609375 590.01875 " transform="matrix(0.1,0,0,-0.1,0,91.83)"/>
<path style="fill:none;stroke-width:10;stroke-linecap:round;stroke-linejoin:round;stroke:rgb(0.390625%,62.5%,23.826599%);stroke-opacity:1;stroke-miterlimit:10;" d="M 983.671875 306.58125 L 1224.609375 363.260937 L 1465.546875 306.58125 " transform="matrix(0.1,0,0,-0.1,0,91.83)"/>
<path style="fill:none;stroke-width:50;stroke-linecap:round;stroke-linejoin:round;stroke:rgb(0.390625%,62.5%,23.826599%);stroke-opacity:1;stroke-miterlimit:10;" d="M 1224.609375 363.260937 L 1224.609375 476.659375 " transform="matrix(0.1,0,0,-0.1,0,91.83)"/>
<path style=" stroke:none;fill-rule:nonzero;fill:rgb(90.039062%,90.039062%,90.039062%);fill-opacity:1;" d="M 17.535156 0 L 20.925781 9 C 9.644531 9 0.835938 18.488281 0.0625 29.992188 C -1.050781 46.542969 13.035156 59.984375 30.050781 59.984375 C 47.070312 59.984375 61.15625 46.542969 60.042969 29.992188 C 59.269531 18.488281 50.460938 9 39.179688 9 L 42.570312 0 Z M 26.921875 7.824219 L 33.179688 7.824219 L 31.355469 14.476562 C 41.378906 14.476562 50.710938 20.417969 52.21875 29.992188 C 54.125 42.097656 43.15625 52.160156 30.050781 52.160156 C 16.945312 52.160156 5.980469 42.097656 7.886719 29.992188 C 9.394531 20.417969 18.726562 14.476562 28.75 14.476562 L 26.921875 7.824219 "/>
<path style=" stroke:none;fill-rule:nonzero;fill:rgb(2.734375%,51.951599%,78.125%);fill-opacity:1;" d="M 19.097656 1.304688 L 22.226562 9.910156 C 11.175781 9.910156 2.285156 18.835938 1.367188 29.992188 C 0.0625 45.808594 13.664062 58.679688 30.050781 58.679688 C 46.4375 58.679688 60.042969 45.808594 58.738281 29.992188 C 57.820312 18.835938 48.925781 9.910156 37.875 9.910156 L 41.003906 1.304688 Z M 25.359375 6.519531 L 34.746094 6.519531 L 32.660156 13.5625 C 42.871094 13.5625 52.109375 20.128906 53.523438 29.992188 C 55.363281 42.839844 43.835938 53.464844 30.050781 53.464844 C 16.269531 53.464844 4.742188 42.839844 6.582031 29.992188 C 7.992188 20.128906 17.230469 13.5625 27.445312 13.5625 L 25.359375 6.519531 "/>
<path style="fill:none;stroke-width:10;stroke-linecap:round;stroke-linejoin:round;stroke:rgb(2.734375%,51.951599%,78.125%);stroke-opacity:1;stroke-miterlimit:10;" d="M 45.390625 618.378125 L 555.625 618.378125 " transform="matrix(0.1,0,0,-0.1,0,91.83)"/>
<path style=" stroke:none;fill-rule:nonzero;fill:rgb(2.734375%,51.951599%,78.125%);fill-opacity:1;" d="M 22.964844 38.496094 C 22.964844 36.148438 21.0625 34.242188 18.714844 34.242188 C 16.363281 34.242188 14.460938 36.148438 14.460938 38.496094 C 14.460938 40.84375 16.363281 42.746094 18.714844 42.746094 C 21.0625 42.746094 22.964844 40.84375 22.964844 38.496094 "/>
<path style=" stroke:none;fill-rule:nonzero;fill:rgb(2.734375%,51.951599%,78.125%);fill-opacity:1;" d="M 32.886719 45.582031 C 32.886719 44.015625 31.617188 42.746094 30.050781 42.746094 C 28.488281 42.746094 27.21875 44.015625 27.21875 45.582031 C 27.21875 47.148438 28.488281 48.417969 30.050781 48.417969 C 31.617188 48.417969 32.886719 47.148438 32.886719 45.582031 "/>
<path style=" stroke:none;fill-rule:nonzero;fill:rgb(2.734375%,51.951599%,78.125%);fill-opacity:1;" d="M 43.09375 35.660156 C 43.09375 34.722656 42.332031 33.960938 41.390625 33.960938 C 40.453125 33.960938 39.691406 34.722656 39.691406 35.660156 C 39.691406 36.601562 40.453125 37.363281 41.390625 37.363281 C 42.332031 37.363281 43.09375 36.601562 43.09375 35.660156 "/>
<path style=" stroke:none;fill-rule:nonzero;fill:rgb(90.039062%,90.039062%,90.039062%);fill-opacity:1;" d="M 91.847656 59.757812 C 108.285156 59.757812 121.609375 46.429688 121.609375 29.992188 C 121.609375 13.554688 108.285156 0.226562 91.847656 0.226562 C 75.410156 0.226562 62.085938 13.554688 62.085938 29.992188 C 62.085938 46.429688 75.410156 59.757812 91.847656 59.757812 L 91.847656 52.667969 C 79.324219 52.667969 69.171875 42.515625 69.171875 29.992188 C 69.171875 17.46875 79.324219 7.316406 91.847656 7.316406 C 104.371094 7.316406 114.523438 17.46875 114.523438 29.992188 C 114.523438 42.515625 104.371094 52.667969 91.847656 52.667969 L 91.847656 59.757812 "/>
<path style=" stroke:none;fill-rule:nonzero;fill:rgb(0%,0%,0%);fill-opacity:1;" d="M 91.847656 58.339844 C 107.503906 58.339844 120.195312 45.648438 120.195312 29.992188 C 120.195312 14.335938 107.503906 1.644531 91.847656 1.644531 C 76.191406 1.644531 63.5 14.335938 63.5 29.992188 C 63.5 45.648438 76.191406 58.339844 91.847656 58.339844 L 91.847656 54.085938 C 78.539062 54.085938 67.753906 43.300781 67.753906 29.992188 C 67.753906 16.683594 78.539062 5.898438 91.847656 5.898438 C 105.15625 5.898438 115.941406 16.683594 115.941406 29.992188 C 115.941406 43.300781 105.15625 54.085938 91.847656 54.085938 L 91.847656 58.339844 "/>
<path style="fill:none;stroke-width:20;stroke-linecap:round;stroke-linejoin:round;stroke:rgb(0%,0%,0%);stroke-opacity:1;stroke-miterlimit:10;" d="M 805.078125 618.378125 L 816.914062 638.846875 C 820.039062 644.276562 827.929688 644.276562 831.054688 638.846875 L 835.78125 630.64375 C 840.507812 622.479687 845.234375 614.276562 849.960938 606.1125 L 854.6875 597.909375 C 857.851562 592.479687 865.703125 592.479687 868.867188 597.909375 L 873.59375 606.1125 C 878.320312 614.276562 883.046875 622.479687 887.773438 630.64375 L 892.5 638.846875 C 895.625 644.276562 903.515625 644.276562 906.679688 638.846875 L 911.40625 630.64375 C 916.09375 622.479687 920.859375 614.276562 925.546875 606.1125 L 930.273438 597.909375 C 933.4375 592.479687 941.328125 592.479687 944.453125 597.909375 L 949.179688 606.1125 C 953.90625 614.276562 958.632812 622.479687 963.359375 630.64375 L 968.085938 638.846875 C 971.210938 644.276562 979.101562 644.276562 982.265625 638.846875 L 986.992188 630.64375 C 991.71875 622.479687 996.445312 614.276562 1001.132812 606.1125 L 1005.898438 597.909375 C 1009.023438 592.479687 1016.914062 592.479687 1020.039062 597.909375 L 1031.875 618.378125 " transform="matrix(0.1,0,0,-0.1,0,91.83)"/>
<path style="fill:none;stroke-width:20;stroke-linecap:round;stroke-linejoin:round;stroke:rgb(0%,0%,0%);stroke-opacity:1;stroke-miterlimit:10;" d="M 805.078125 618.378125 L 708.28125 450.682812 " transform="matrix(0.1,0,0,-0.1,0,91.83)"/>
<path style="fill:none;stroke-width:20;stroke-linecap:round;stroke-linejoin:round;stroke:rgb(0%,0%,0%);stroke-opacity:1;stroke-miterlimit:10;" d="M 805.078125 618.378125 L 708.28125 786.073437 " transform="matrix(0.1,0,0,-0.1,0,91.83)"/>
<path style="fill:none;stroke-width:20;stroke-linecap:round;stroke-linejoin:round;stroke:rgb(0%,0%,0%);stroke-opacity:1;stroke-miterlimit:10;" d="M 1031.875 618.378125 L 1128.671875 450.682812 " transform="matrix(0.1,0,0,-0.1,0,91.83)"/>
<path style="fill:none;stroke-width:20;stroke-linecap:round;stroke-linejoin:round;stroke:rgb(0%,0%,0%);stroke-opacity:1;stroke-miterlimit:10;" d="M 1031.875 618.378125 L 1128.671875 786.073437 " transform="matrix(0.1,0,0,-0.1,0,91.83)"/>
<path style=" stroke:none;fill-rule:nonzero;fill:rgb(90.039062%,90.039062%,90.039062%);fill-opacity:1;" d="M 138.679688 45.023438 C 138.640625 45.488281 138.617188 45.957031 138.617188 46.433594 C 138.617188 55.355469 145.851562 62.589844 154.777344 62.589844 C 163.699219 62.589844 170.933594 55.355469 170.933594 46.433594 C 170.933594 45.957031 170.914062 45.488281 170.875 45.023438 L 162.402344 45.765625 C 162.421875 45.984375 162.429688 46.207031 162.429688 46.433594 C 162.429688 50.660156 159.003906 54.085938 154.777344 54.085938 C 150.550781 54.085938 147.121094 50.660156 147.121094 46.433594 C 147.121094 46.207031 147.132812 45.984375 147.152344 45.765625 L 138.679688 45.023438 "/>
<g clip-path="url(#clip6)" clip-rule="nonzero">
<path style=" stroke:none;fill-rule:nonzero;fill:rgb(90.039062%,90.039062%,90.039062%);fill-opacity:1;" d="M 164.097656 49.945312 C 164.527344 50.128906 164.96875 50.292969 165.421875 50.4375 C 173.90625 53.195312 183.023438 48.550781 185.78125 40.066406 C 188.535156 31.578125 183.894531 22.464844 175.40625 19.707031 C 174.953125 19.558594 174.503906 19.433594 174.046875 19.328125 L 172.136719 27.613281 C 172.351562 27.664062 172.5625 27.722656 172.777344 27.792969 C 176.796875 29.101562 178.996094 33.417969 177.691406 37.4375 C 176.386719 41.457031 172.066406 43.65625 168.046875 42.351562 C 167.835938 42.28125 167.625 42.203125 167.421875 42.117188 L 164.097656 49.945312 "/>
</g>
<path style=" stroke:none;fill-rule:nonzero;fill:rgb(90.039062%,90.039062%,90.039062%);fill-opacity:1;" d="M 176.636719 27.292969 C 176.941406 26.941406 177.234375 26.570312 177.511719 26.1875 C 182.757812 18.96875 181.15625 8.863281 173.9375 3.621094 C 166.71875 -1.625 156.613281 -0.0234375 151.367188 7.195312 C 151.089844 7.578125 150.828125 7.96875 150.589844 8.367188 L 157.878906 12.75 C 157.992188 12.558594 158.117188 12.375 158.246094 12.191406 C 160.734375 8.773438 165.519531 8.015625 168.9375 10.5 C 172.359375 12.984375 173.117188 17.769531 170.632812 21.191406 C 170.5 21.371094 170.363281 21.546875 170.21875 21.710938 L 176.636719 27.292969 "/>
<path style=" stroke:none;fill-rule:nonzero;fill:rgb(90.039062%,90.039062%,90.039062%);fill-opacity:1;" d="M 158.964844 8.367188 C 158.722656 7.96875 158.464844 7.578125 158.183594 7.195312 C 152.9375 -0.0234375 142.835938 -1.625 135.617188 3.621094 C 128.394531 8.863281 126.796875 18.96875 132.039062 26.1875 C 132.320312 26.570312 132.613281 26.941406 132.917969 27.292969 L 139.335938 21.710938 C 139.191406 21.546875 139.054688 21.371094 138.921875 21.191406 C 136.4375 17.769531 137.195312 12.984375 140.613281 10.5 C 144.035156 8.015625 148.820312 8.773438 151.304688 12.191406 C 151.4375 12.375 151.558594 12.558594 151.675781 12.75 L 158.964844 8.367188 "/>
<path style=" stroke:none;fill-rule:nonzero;fill:rgb(90.039062%,90.039062%,90.039062%);fill-opacity:1;" d="M 135.503906 19.328125 C 135.050781 19.433594 134.597656 19.558594 134.148438 19.707031 C 125.660156 22.464844 121.015625 31.578125 123.773438 40.066406 C 126.53125 48.550781 135.644531 53.195312 144.132812 50.4375 C 144.585938 50.292969 145.023438 50.128906 145.453125 49.945312 L 142.132812 42.117188 C 141.929688 42.203125 141.71875 42.28125 141.503906 42.351562 C 137.484375 43.65625 133.167969 41.457031 131.859375 37.4375 C 130.554688 33.417969 132.753906 29.101562 136.773438 27.792969 C 136.988281 27.722656 137.203125 27.664062 137.417969 27.613281 L 135.503906 19.328125 "/>
<path style=" stroke:none;fill-rule:nonzero;fill:rgb(87.109375%,1.171875%,14.0625%);fill-opacity:1;" d="M 140.035156 46.433594 C 140.035156 54.574219 146.636719 61.171875 154.777344 61.171875 C 162.917969 61.171875 169.515625 54.574219 169.515625 46.433594 L 163.847656 46.433594 C 163.847656 51.441406 159.785156 55.503906 154.777344 55.503906 C 149.765625 55.503906 145.707031 51.441406 145.707031 46.433594 L 140.035156 46.433594 "/>
<path style=" stroke:none;fill-rule:nonzero;fill:rgb(87.109375%,1.171875%,14.0625%);fill-opacity:1;" d="M 168.101562 46.433594 C 168.101562 39.074219 162.136719 33.109375 154.777344 33.109375 C 147.417969 33.109375 141.453125 39.074219 141.453125 46.433594 L 144.289062 46.433594 C 144.289062 40.640625 148.984375 35.945312 154.777344 35.945312 C 160.570312 35.945312 165.265625 40.640625 165.265625 46.433594 L 168.101562 46.433594 "/>
<path style=" stroke:none;fill-rule:nonzero;fill:rgb(87.109375%,1.171875%,14.0625%);fill-opacity:1;" d="M 165.859375 49.089844 C 173.601562 51.605469 181.914062 47.371094 184.433594 39.628906 C 186.945312 31.886719 182.710938 23.570312 174.96875 21.054688 L 173.214844 26.445312 C 177.980469 27.992188 180.589844 33.109375 179.039062 37.875 C 177.492188 42.640625 172.375 45.246094 167.609375 43.699219 L 165.859375 49.089844 "/>
<path style=" stroke:none;fill-rule:nonzero;fill:rgb(87.109375%,1.171875%,14.0625%);fill-opacity:1;" d="M 174.53125 22.402344 C 167.53125 20.128906 160.015625 23.957031 157.742188 30.957031 C 155.46875 37.953125 159.296875 45.46875 166.296875 47.742188 L 167.171875 45.046875 C 161.664062 43.257812 158.648438 37.339844 160.4375 31.832031 C 162.226562 26.324219 168.144531 23.308594 173.652344 25.097656 L 174.53125 22.402344 "/>
<path style=" stroke:none;fill-rule:nonzero;fill:rgb(87.109375%,1.171875%,14.0625%);fill-opacity:1;" d="M 176.367188 25.355469 C 181.148438 18.769531 179.691406 9.550781 173.105469 4.765625 C 166.519531 -0.0195312 157.300781 1.441406 152.515625 8.027344 L 157.101562 11.359375 C 160.046875 7.304688 165.71875 6.40625 169.773438 9.351562 C 173.824219 12.296875 174.722656 17.96875 171.777344 22.023438 L 176.367188 25.355469 "/>
<path style=" stroke:none;fill-rule:nonzero;fill:rgb(87.109375%,1.171875%,14.0625%);fill-opacity:1;" d="M 153.660156 8.859375 C 149.335938 14.8125 150.65625 23.144531 156.609375 27.46875 C 162.5625 31.792969 170.894531 30.476562 175.21875 24.523438 L 172.925781 22.855469 C 169.519531 27.542969 162.960938 28.582031 158.277344 25.175781 C 153.589844 21.769531 152.550781 15.210938 155.953125 10.527344 L 153.660156 8.859375 "/>
<path style=" stroke:none;fill-rule:nonzero;fill:rgb(87.109375%,1.171875%,14.0625%);fill-opacity:1;" d="M 157.039062 8.027344 C 152.253906 1.441406 143.035156 -0.0195312 136.449219 4.765625 C 129.863281 9.550781 128.402344 18.769531 133.1875 25.355469 L 137.773438 22.023438 C 134.828125 17.96875 135.726562 12.296875 139.78125 9.351562 C 143.835938 6.40625 149.507812 7.304688 152.453125 11.359375 L 157.039062 8.027344 "/>
<path style=" stroke:none;fill-rule:nonzero;fill:rgb(87.109375%,1.171875%,14.0625%);fill-opacity:1;" d="M 134.335938 24.523438 C 138.660156 30.476562 146.992188 31.792969 152.945312 27.46875 C 158.894531 23.144531 160.214844 14.8125 155.890625 8.859375 L 153.597656 10.527344 C 157.003906 15.210938 155.964844 21.769531 151.277344 25.175781 C 146.589844 28.582031 140.03125 27.542969 136.628906 22.855469 L 134.335938 24.523438 "/>
<path style=" stroke:none;fill-rule:nonzero;fill:rgb(87.109375%,1.171875%,14.0625%);fill-opacity:1;" d="M 134.585938 21.054688 C 126.84375 23.570312 122.605469 31.886719 125.121094 39.628906 C 127.636719 47.371094 135.953125 51.605469 143.695312 49.089844 L 141.941406 43.699219 C 137.179688 45.246094 132.0625 42.640625 130.515625 37.875 C 128.964844 33.109375 131.574219 27.992188 136.339844 26.445312 L 134.585938 21.054688 "/>
<path style=" stroke:none;fill-rule:nonzero;fill:rgb(87.109375%,1.171875%,14.0625%);fill-opacity:1;" d="M 143.257812 47.742188 C 150.253906 45.46875 154.085938 37.953125 151.8125 30.957031 C 149.539062 23.957031 142.019531 20.128906 135.023438 22.402344 L 135.898438 25.097656 C 141.40625 23.308594 147.324219 26.324219 149.113281 31.832031 C 150.90625 37.339844 147.890625 43.257812 142.382812 45.046875 L 143.257812 47.742188 "/>
<g clip-path="url(#clip7)" clip-rule="nonzero">
<path style=" stroke:none;fill-rule:nonzero;fill:rgb(90.039062%,90.039062%,90.039062%);fill-opacity:1;" d="M 60.097656 91.789062 C 76.539062 91.789062 89.863281 78.460938 89.863281 62.023438 C 89.863281 53.804688 86.53125 46.363281 81.144531 40.976562 L 76.136719 45.988281 C 80.238281 50.09375 82.777344 55.761719 82.777344 62.023438 C 82.777344 74.546875 72.625 84.699219 60.097656 84.699219 L 60.097656 91.789062 "/>
</g>
<path style=" stroke:none;fill-rule:nonzero;fill:rgb(95.701599%,75.78125%,0%);fill-opacity:1;" d="M 60.097656 90.371094 C 75.753906 90.371094 88.445312 77.679688 88.445312 62.023438 C 88.445312 54.195312 85.273438 47.109375 80.144531 41.980469 L 77.136719 44.984375 C 81.496094 49.347656 84.195312 55.371094 84.195312 62.023438 C 84.195312 75.332031 73.40625 86.117188 60.097656 86.117188 L 60.097656 90.371094 "/>
<path style=" stroke:none;fill-rule:nonzero;fill:rgb(90.039062%,90.039062%,90.039062%);fill-opacity:1;" d="M 59.0625 32.277344 C 51.253906 32.546875 44.210938 35.820312 39.054688 40.976562 L 44.066406 45.988281 C 47.996094 42.058594 53.359375 39.5625 59.308594 39.359375 L 59.0625 32.277344 "/>
<path style=" stroke:none;fill-rule:nonzero;fill:rgb(95.701599%,75.78125%,0%);fill-opacity:1;" d="M 60.097656 33.675781 C 52.273438 33.675781 45.183594 36.851562 40.054688 41.980469 L 43.0625 44.984375 C 47.421875 40.625 53.445312 37.929688 60.097656 37.929688 L 60.097656 33.675781 "/>
<path style="fill:none;stroke-width:3;stroke-linecap:round;stroke-linejoin:round;stroke:rgb(95.701599%,75.78125%,0%);stroke-opacity:1;stroke-miterlimit:10;" d="M 843.125 326.346875 L 841.015625 338.378125 " transform="matrix(0.1,0,0,-0.1,0,91.83)"/>
<path style="fill:none;stroke-width:3;stroke-linecap:round;stroke-linejoin:round;stroke:rgb(95.701599%,75.78125%,0%);stroke-opacity:1;stroke-miterlimit:10;" d="M 841.015625 338.378125 L 838.203125 354.276562 " transform="matrix(0.1,0,0,-0.1,0,91.83)"/>
<path style="fill:none;stroke-width:3;stroke-linecap:round;stroke-linejoin:round;stroke:rgb(95.701599%,75.78125%,0%);stroke-opacity:1;stroke-miterlimit:10;" d="M 838.203125 354.276562 L 829.882812 377.167187 " transform="matrix(0.1,0,0,-0.1,0,91.83)"/>
<path style="fill:none;stroke-width:3;stroke-linecap:round;stroke-linejoin:round;stroke:rgb(95.701599%,75.78125%,0%);stroke-opacity:1;stroke-miterlimit:10;" d="M 829.882812 377.167187 L 818.828125 407.479687 " transform="matrix(0.1,0,0,-0.1,0,91.83)"/>
<path style="fill:none;stroke-width:3;stroke-linecap:round;stroke-linejoin:round;stroke:rgb(95.701599%,75.78125%,0%);stroke-opacity:1;stroke-miterlimit:10;" d="M 830.078125 381.425 L 811.875 412.9875 " transform="matrix(0.1,0,0,-0.1,0,91.83)"/>
<path style="fill:none;stroke-width:3;stroke-linecap:round;stroke-linejoin:round;stroke:rgb(95.701599%,75.78125%,0%);stroke-opacity:1;stroke-miterlimit:10;" d="M 811.875 412.9875 L 787.734375 454.745312 " transform="matrix(0.1,0,0,-0.1,0,91.83)"/>
<path style="fill:none;stroke-width:3;stroke-linecap:round;stroke-linejoin:round;stroke:rgb(95.701599%,75.78125%,0%);stroke-opacity:1;stroke-miterlimit:10;" d="M 818.828125 407.479687 L 787.773438 444.510937 " transform="matrix(0.1,0,0,-0.1,0,91.83)"/>
<path style="fill:none;stroke-width:3;stroke-linecap:round;stroke-linejoin:round;stroke:rgb(95.701599%,75.78125%,0%);stroke-opacity:1;stroke-miterlimit:10;" d="M 787.773438 444.510937 L 746.5625 493.6125 " transform="matrix(0.1,0,0,-0.1,0,91.83)"/>
<path style="fill:none;stroke-width:3;stroke-linecap:round;stroke-linejoin:round;stroke:rgb(95.701599%,75.78125%,0%);stroke-opacity:1;stroke-miterlimit:10;" d="M 804.6875 432.010937 L 758.59375 470.682812 " transform="matrix(0.1,0,0,-0.1,0,91.83)"/>
<path style="fill:none;stroke-width:3;stroke-linecap:round;stroke-linejoin:round;stroke:rgb(95.701599%,75.78125%,0%);stroke-opacity:1;stroke-miterlimit:10;" d="M 618.046875 509.198437 L 479.101562 509.198437 " transform="matrix(0.1,0,0,-0.1,0,91.83)"/>
<path style="fill:none;stroke-width:3;stroke-linecap:round;stroke-linejoin:round;stroke:rgb(95.701599%,75.78125%,0%);stroke-opacity:1;stroke-miterlimit:10;" d="M 584.101562 501.89375 L 433.710938 475.370312 " transform="matrix(0.1,0,0,-0.1,0,91.83)"/>
<path style="fill:none;stroke-width:3;stroke-linecap:round;stroke-linejoin:round;stroke:rgb(95.701599%,75.78125%,0%);stroke-opacity:1;stroke-miterlimit:10;" d="M 586.835938 541.425 L 488.789062 424.628125 " transform="matrix(0.1,0,0,-0.1,0,91.83)"/>
<path style="fill:none;stroke-width:3;stroke-linecap:round;stroke-linejoin:round;stroke:rgb(95.701599%,75.78125%,0%);stroke-opacity:1;stroke-miterlimit:10;" d="M 488.789062 424.628125 L 358.867188 269.745312 " transform="matrix(0.1,0,0,-0.1,0,91.83)"/>
<path style="fill:none;stroke-width:3;stroke-linecap:round;stroke-linejoin:round;stroke:rgb(95.701599%,75.78125%,0%);stroke-opacity:1;stroke-miterlimit:10;" d="M 558.671875 538.14375 L 478.359375 399.042187 " transform="matrix(0.1,0,0,-0.1,0,91.83)"/>
<path style="fill:none;stroke-width:3;stroke-linecap:round;stroke-linejoin:round;stroke:rgb(95.701599%,75.78125%,0%);stroke-opacity:1;stroke-miterlimit:10;" d="M 478.359375 399.042187 L 371.914062 214.667187 " transform="matrix(0.1,0,0,-0.1,0,91.83)"/>
<path style="fill:none;stroke-width:3;stroke-linecap:round;stroke-linejoin:round;stroke:rgb(95.701599%,75.78125%,0%);stroke-opacity:1;stroke-miterlimit:10;" d="M 531.09375 531.620312 L 473.554688 373.573437 " transform="matrix(0.1,0,0,-0.1,0,91.83)"/>
<path style="fill:none;stroke-width:3;stroke-linecap:round;stroke-linejoin:round;stroke:rgb(95.701599%,75.78125%,0%);stroke-opacity:1;stroke-miterlimit:10;" d="M 473.554688 373.573437 L 397.304688 164.120312 " transform="matrix(0.1,0,0,-0.1,0,91.83)"/>
<path style="fill:none;stroke-width:3;stroke-linecap:round;stroke-linejoin:round;stroke:rgb(95.701599%,75.78125%,0%);stroke-opacity:1;stroke-miterlimit:10;" d="M 504.453125 521.89375 L 474.023438 349.39375 " transform="matrix(0.1,0,0,-0.1,0,91.83)"/>
<path style="fill:none;stroke-width:3;stroke-linecap:round;stroke-linejoin:round;stroke:rgb(95.701599%,75.78125%,0%);stroke-opacity:1;stroke-miterlimit:10;" d="M 474.023438 349.39375 L 433.710938 120.760937 " transform="matrix(0.1,0,0,-0.1,0,91.83)"/>
<path style="fill:none;stroke-width:3;stroke-linecap:round;stroke-linejoin:round;stroke:rgb(95.701599%,75.78125%,0%);stroke-opacity:1;stroke-miterlimit:10;" d="M 479.101562 509.198437 L 479.101562 327.635937 " transform="matrix(0.1,0,0,-0.1,0,91.83)"/>
<path style="fill:none;stroke-width:3;stroke-linecap:round;stroke-linejoin:round;stroke:rgb(95.701599%,75.78125%,0%);stroke-opacity:1;stroke-miterlimit:10;" d="M 479.101562 327.635937 L 479.101562 86.932812 " transform="matrix(0.1,0,0,-0.1,0,91.83)"/>
<path style="fill:none;stroke-width:3;stroke-linecap:round;stroke-linejoin:round;stroke:rgb(95.701599%,75.78125%,0%);stroke-opacity:1;stroke-miterlimit:10;" d="M 455.429688 493.6125 L 487.96875 309.120312 " transform="matrix(0.1,0,0,-0.1,0,91.83)"/>
<path style="fill:none;stroke-width:3;stroke-linecap:round;stroke-linejoin:round;stroke:rgb(95.701599%,75.78125%,0%);stroke-opacity:1;stroke-miterlimit:10;" d="M 487.96875 309.120312 L 531.09375 64.510937 " transform="matrix(0.1,0,0,-0.1,0,91.83)"/>
<path style="fill:none;stroke-width:3;stroke-linecap:round;stroke-linejoin:round;stroke:rgb(95.701599%,75.78125%,0%);stroke-opacity:1;stroke-miterlimit:10;" d="M 433.710938 475.370312 L 499.53125 294.471875 " transform="matrix(0.1,0,0,-0.1,0,91.83)"/>
<path style="fill:none;stroke-width:3;stroke-linecap:round;stroke-linejoin:round;stroke:rgb(95.701599%,75.78125%,0%);stroke-opacity:1;stroke-miterlimit:10;" d="M 499.53125 294.471875 L 586.835938 54.70625 " transform="matrix(0.1,0,0,-0.1,0,91.83)"/>
<path style="fill:none;stroke-width:3;stroke-linecap:round;stroke-linejoin:round;stroke:rgb(95.701599%,75.78125%,0%);stroke-opacity:1;stroke-miterlimit:10;" d="M 414.257812 454.745312 L 512.773438 284.159375 " transform="matrix(0.1,0,0,-0.1,0,91.83)"/>
<path style="fill:none;stroke-width:3;stroke-linecap:round;stroke-linejoin:round;stroke:rgb(95.701599%,75.78125%,0%);stroke-opacity:1;stroke-miterlimit:10;" d="M 512.773438 284.159375 L 643.320312 57.9875 " transform="matrix(0.1,0,0,-0.1,0,91.83)"/>
<path style="fill:none;stroke-width:3;stroke-linecap:round;stroke-linejoin:round;stroke:rgb(95.701599%,75.78125%,0%);stroke-opacity:1;stroke-miterlimit:10;" d="M 526.40625 278.182812 L 697.539062 74.2375 " transform="matrix(0.1,0,0,-0.1,0,91.83)"/>
<path style="fill:none;stroke-width:3;stroke-linecap:round;stroke-linejoin:round;stroke:rgb(95.701599%,75.78125%,0%);stroke-opacity:1;stroke-miterlimit:10;" d="M 539.414062 276.346875 L 746.5625 102.51875 " transform="matrix(0.1,0,0,-0.1,0,91.83)"/>
<path style="fill:none;stroke-width:3;stroke-linecap:round;stroke-linejoin:round;stroke:rgb(95.701599%,75.78125%,0%);stroke-opacity:1;stroke-miterlimit:10;" d="M 550.742188 278.221875 L 787.734375 141.346875 " transform="matrix(0.1,0,0,-0.1,0,91.83)"/>
<path style="fill:none;stroke-width:3;stroke-linecap:round;stroke-linejoin:round;stroke:rgb(95.701599%,75.78125%,0%);stroke-opacity:1;stroke-miterlimit:10;" d="M 559.453125 283.065625 L 818.828125 188.651562 " transform="matrix(0.1,0,0,-0.1,0,91.83)"/>
<path style="fill:none;stroke-width:3;stroke-linecap:round;stroke-linejoin:round;stroke:rgb(95.701599%,75.78125%,0%);stroke-opacity:1;stroke-miterlimit:10;" d="M 564.960938 290.01875 L 838.203125 241.854687 " transform="matrix(0.1,0,0,-0.1,0,91.83)"/>
<path style="fill:none;stroke-width:3;stroke-linecap:round;stroke-linejoin:round;stroke:rgb(95.701599%,75.78125%,0%);stroke-opacity:1;stroke-miterlimit:10;" d="M 357.226562 298.065625 L 566.875 298.065625 " transform="matrix(0.1,0,0,-0.1,0,91.83)"/>
<path style="fill:none;stroke-width:3;stroke-linecap:round;stroke-linejoin:round;stroke:rgb(95.701599%,75.78125%,0%);stroke-opacity:1;stroke-miterlimit:10;" d="M 566.875 298.065625 L 844.765625 298.065625 " transform="matrix(0.1,0,0,-0.1,0,91.83)"/>
<path style="fill:none;stroke-width:3;stroke-linecap:round;stroke-linejoin:round;stroke:rgb(95.701599%,75.78125%,0%);stroke-opacity:1;stroke-miterlimit:10;" d="M 358.867188 269.745312 L 564.960938 306.1125 " transform="matrix(0.1,0,0,-0.1,0,91.83)"/>
<path style="fill:none;stroke-width:3;stroke-linecap:round;stroke-linejoin:round;stroke:rgb(95.701599%,75.78125%,0%);stroke-opacity:1;stroke-miterlimit:10;" d="M 564.960938 306.1125 L 838.203125 354.276562 " transform="matrix(0.1,0,0,-0.1,0,91.83)"/>
<path style="fill:none;stroke-width:3;stroke-linecap:round;stroke-linejoin:round;stroke:rgb(95.701599%,75.78125%,0%);stroke-opacity:1;stroke-miterlimit:10;" d="M 363.789062 241.854687 L 559.453125 313.065625 " transform="matrix(0.1,0,0,-0.1,0,91.83)"/>
<path style="fill:none;stroke-width:3;stroke-linecap:round;stroke-linejoin:round;stroke:rgb(95.701599%,75.78125%,0%);stroke-opacity:1;stroke-miterlimit:10;" d="M 559.453125 313.065625 L 818.828125 407.479687 " transform="matrix(0.1,0,0,-0.1,0,91.83)"/>
<path style="fill:none;stroke-width:3;stroke-linecap:round;stroke-linejoin:round;stroke:rgb(95.701599%,75.78125%,0%);stroke-opacity:1;stroke-miterlimit:10;" d="M 371.914062 214.667187 L 550.742188 317.909375 " transform="matrix(0.1,0,0,-0.1,0,91.83)"/>
<path style="fill:none;stroke-width:3;stroke-linecap:round;stroke-linejoin:round;stroke:rgb(95.701599%,75.78125%,0%);stroke-opacity:1;stroke-miterlimit:10;" d="M 550.742188 317.909375 L 787.734375 454.745312 " transform="matrix(0.1,0,0,-0.1,0,91.83)"/>
<path style="fill:none;stroke-width:3;stroke-linecap:round;stroke-linejoin:round;stroke:rgb(95.701599%,75.78125%,0%);stroke-opacity:1;stroke-miterlimit:10;" d="M 383.164062 188.651562 L 539.414062 319.784375 " transform="matrix(0.1,0,0,-0.1,0,91.83)"/>
<path style="fill:none;stroke-width:3;stroke-linecap:round;stroke-linejoin:round;stroke:rgb(95.701599%,75.78125%,0%);stroke-opacity:1;stroke-miterlimit:10;" d="M 539.414062 319.784375 L 746.5625 493.6125 " transform="matrix(0.1,0,0,-0.1,0,91.83)"/>
<path style="fill:none;stroke-width:3;stroke-linecap:round;stroke-linejoin:round;stroke:rgb(95.701599%,75.78125%,0%);stroke-opacity:1;stroke-miterlimit:10;" d="M 397.304688 164.120312 L 526.40625 317.948437 " transform="matrix(0.1,0,0,-0.1,0,91.83)"/>
<path style="fill:none;stroke-width:3;stroke-linecap:round;stroke-linejoin:round;stroke:rgb(95.701599%,75.78125%,0%);stroke-opacity:1;stroke-miterlimit:10;" d="M 414.257812 141.346875 L 512.773438 311.971875 " transform="matrix(0.1,0,0,-0.1,0,91.83)"/>
<path style="fill:none;stroke-width:3;stroke-linecap:round;stroke-linejoin:round;stroke:rgb(95.701599%,75.78125%,0%);stroke-opacity:1;stroke-miterlimit:10;" d="M 433.710938 120.760937 L 499.53125 301.659375 " transform="matrix(0.1,0,0,-0.1,0,91.83)"/>
<path style="fill:none;stroke-width:3;stroke-linecap:round;stroke-linejoin:round;stroke:rgb(95.701599%,75.78125%,0%);stroke-opacity:1;stroke-miterlimit:10;" d="M 499.53125 301.659375 L 586.835938 541.425 " transform="matrix(0.1,0,0,-0.1,0,91.83)"/>
<path style="fill:none;stroke-width:3;stroke-linecap:round;stroke-linejoin:round;stroke:rgb(95.701599%,75.78125%,0%);stroke-opacity:1;stroke-miterlimit:10;" d="M 455.429688 102.51875 L 487.96875 287.010937 " transform="matrix(0.1,0,0,-0.1,0,91.83)"/>
<path style="fill:none;stroke-width:3;stroke-linecap:round;stroke-linejoin:round;stroke:rgb(95.701599%,75.78125%,0%);stroke-opacity:1;stroke-miterlimit:10;" d="M 487.96875 287.010937 L 531.09375 531.620312 " transform="matrix(0.1,0,0,-0.1,0,91.83)"/>
<path style="fill:none;stroke-width:3;stroke-linecap:round;stroke-linejoin:round;stroke:rgb(95.701599%,75.78125%,0%);stroke-opacity:1;stroke-miterlimit:10;" d="M 479.101562 86.932812 L 479.101562 268.495312 " transform="matrix(0.1,0,0,-0.1,0,91.83)"/>
<path style="fill:none;stroke-width:3;stroke-linecap:round;stroke-linejoin:round;stroke:rgb(95.701599%,75.78125%,0%);stroke-opacity:1;stroke-miterlimit:10;" d="M 479.101562 268.495312 L 479.101562 509.198437 " transform="matrix(0.1,0,0,-0.1,0,91.83)"/>
<path style="fill:none;stroke-width:3;stroke-linecap:round;stroke-linejoin:round;stroke:rgb(95.701599%,75.78125%,0%);stroke-opacity:1;stroke-miterlimit:10;" d="M 504.453125 74.2375 L 474.023438 246.7375 " transform="matrix(0.1,0,0,-0.1,0,91.83)"/>
<path style="fill:none;stroke-width:3;stroke-linecap:round;stroke-linejoin:round;stroke:rgb(95.701599%,75.78125%,0%);stroke-opacity:1;stroke-miterlimit:10;" d="M 474.023438 246.7375 L 433.710938 475.370312 " transform="matrix(0.1,0,0,-0.1,0,91.83)"/>
<path style="fill:none;stroke-width:3;stroke-linecap:round;stroke-linejoin:round;stroke:rgb(95.701599%,75.78125%,0%);stroke-opacity:1;stroke-miterlimit:10;" d="M 531.09375 64.510937 L 473.554688 222.557812 " transform="matrix(0.1,0,0,-0.1,0,91.83)"/>
<path style="fill:none;stroke-width:3;stroke-linecap:round;stroke-linejoin:round;stroke:rgb(95.701599%,75.78125%,0%);stroke-opacity:1;stroke-miterlimit:10;" d="M 558.671875 57.9875 L 478.359375 197.089062 " transform="matrix(0.1,0,0,-0.1,0,91.83)"/>
<path style="fill:none;stroke-width:3;stroke-linecap:round;stroke-linejoin:round;stroke:rgb(95.701599%,75.78125%,0%);stroke-opacity:1;stroke-miterlimit:10;" d="M 586.835938 54.70625 L 488.789062 171.503125 " transform="matrix(0.1,0,0,-0.1,0,91.83)"/>
<path style="fill:none;stroke-width:3;stroke-linecap:round;stroke-linejoin:round;stroke:rgb(95.701599%,75.78125%,0%);stroke-opacity:1;stroke-miterlimit:10;" d="M 615.15625 54.70625 L 504.960938 147.167187 " transform="matrix(0.1,0,0,-0.1,0,91.83)"/>
<path style="fill:none;stroke-width:3;stroke-linecap:round;stroke-linejoin:round;stroke:rgb(95.701599%,75.78125%,0%);stroke-opacity:1;stroke-miterlimit:10;" d="M 504.960938 147.167187 L 358.867188 269.745312 " transform="matrix(0.1,0,0,-0.1,0,91.83)"/>
<path style="fill:none;stroke-width:3;stroke-linecap:round;stroke-linejoin:round;stroke:rgb(95.701599%,75.78125%,0%);stroke-opacity:1;stroke-miterlimit:10;" d="M 643.320312 57.9875 L 526.601562 125.370312 " transform="matrix(0.1,0,0,-0.1,0,91.83)"/>
<path style="fill:none;stroke-width:3;stroke-linecap:round;stroke-linejoin:round;stroke:rgb(95.701599%,75.78125%,0%);stroke-opacity:1;stroke-miterlimit:10;" d="M 526.601562 125.370312 L 371.914062 214.667187 " transform="matrix(0.1,0,0,-0.1,0,91.83)"/>
<path style="fill:none;stroke-width:3;stroke-linecap:round;stroke-linejoin:round;stroke:rgb(95.701599%,75.78125%,0%);stroke-opacity:1;stroke-miterlimit:10;" d="M 670.898438 64.510937 L 553.28125 107.3625 " transform="matrix(0.1,0,0,-0.1,0,91.83)"/>
<path style="fill:none;stroke-width:3;stroke-linecap:round;stroke-linejoin:round;stroke:rgb(95.701599%,75.78125%,0%);stroke-opacity:1;stroke-miterlimit:10;" d="M 553.28125 107.3625 L 397.304688 164.120312 " transform="matrix(0.1,0,0,-0.1,0,91.83)"/>
<path style="fill:none;stroke-width:3;stroke-linecap:round;stroke-linejoin:round;stroke:rgb(95.701599%,75.78125%,0%);stroke-opacity:1;stroke-miterlimit:10;" d="M 697.539062 74.2375 L 584.101562 94.2375 " transform="matrix(0.1,0,0,-0.1,0,91.83)"/>
<path style="fill:none;stroke-width:3;stroke-linecap:round;stroke-linejoin:round;stroke:rgb(95.701599%,75.78125%,0%);stroke-opacity:1;stroke-miterlimit:10;" d="M 584.101562 94.2375 L 433.710938 120.760937 " transform="matrix(0.1,0,0,-0.1,0,91.83)"/>
<path style="fill:none;stroke-width:3;stroke-linecap:round;stroke-linejoin:round;stroke:rgb(95.701599%,75.78125%,0%);stroke-opacity:1;stroke-miterlimit:10;" d="M 722.890625 86.932812 L 618.046875 86.932812 " transform="matrix(0.1,0,0,-0.1,0,91.83)"/>
<path style="fill:none;stroke-width:3;stroke-linecap:round;stroke-linejoin:round;stroke:rgb(95.701599%,75.78125%,0%);stroke-opacity:1;stroke-miterlimit:10;" d="M 618.046875 86.932812 L 479.101562 86.932812 " transform="matrix(0.1,0,0,-0.1,0,91.83)"/>
<path style="fill:none;stroke-width:3;stroke-linecap:round;stroke-linejoin:round;stroke:rgb(95.701599%,75.78125%,0%);stroke-opacity:1;stroke-miterlimit:10;" d="M 746.5625 102.51875 L 653.90625 86.190625 " transform="matrix(0.1,0,0,-0.1,0,91.83)"/>
<path style="fill:none;stroke-width:3;stroke-linecap:round;stroke-linejoin:round;stroke:rgb(95.701599%,75.78125%,0%);stroke-opacity:1;stroke-miterlimit:10;" d="M 653.90625 86.190625 L 531.09375 64.510937 " transform="matrix(0.1,0,0,-0.1,0,91.83)"/>
<path style="fill:none;stroke-width:3;stroke-linecap:round;stroke-linejoin:round;stroke:rgb(95.701599%,75.78125%,0%);stroke-opacity:1;stroke-miterlimit:10;" d="M 768.28125 120.760937 L 690.273438 92.3625 " transform="matrix(0.1,0,0,-0.1,0,91.83)"/>
<path style="fill:none;stroke-width:3;stroke-linecap:round;stroke-linejoin:round;stroke:rgb(95.701599%,75.78125%,0%);stroke-opacity:1;stroke-miterlimit:10;" d="M 690.273438 92.3625 L 586.835938 54.70625 " transform="matrix(0.1,0,0,-0.1,0,91.83)"/>
<path style="fill:none;stroke-width:3;stroke-linecap:round;stroke-linejoin:round;stroke:rgb(95.701599%,75.78125%,0%);stroke-opacity:1;stroke-miterlimit:10;" d="M 787.734375 141.346875 L 725.664062 105.526562 " transform="matrix(0.1,0,0,-0.1,0,91.83)"/>
<path style="fill:none;stroke-width:3;stroke-linecap:round;stroke-linejoin:round;stroke:rgb(95.701599%,75.78125%,0%);stroke-opacity:1;stroke-miterlimit:10;" d="M 725.664062 105.526562 L 643.320312 57.9875 " transform="matrix(0.1,0,0,-0.1,0,91.83)"/>
<path style="fill:none;stroke-width:3;stroke-linecap:round;stroke-linejoin:round;stroke:rgb(95.701599%,75.78125%,0%);stroke-opacity:1;stroke-miterlimit:10;" d="M 804.6875 164.120312 L 758.59375 125.448437 " transform="matrix(0.1,0,0,-0.1,0,91.83)"/>
<path style="fill:none;stroke-width:3;stroke-linecap:round;stroke-linejoin:round;stroke:rgb(95.701599%,75.78125%,0%);stroke-opacity:1;stroke-miterlimit:10;" d="M 758.59375 125.448437 L 697.539062 74.2375 " transform="matrix(0.1,0,0,-0.1,0,91.83)"/>
<path style="fill:none;stroke-width:3;stroke-linecap:round;stroke-linejoin:round;stroke:rgb(95.701599%,75.78125%,0%);stroke-opacity:1;stroke-miterlimit:10;" d="M 818.828125 188.651562 L 787.773438 151.620312 " transform="matrix(0.1,0,0,-0.1,0,91.83)"/>
<path style="fill:none;stroke-width:3;stroke-linecap:round;stroke-linejoin:round;stroke:rgb(95.701599%,75.78125%,0%);stroke-opacity:1;stroke-miterlimit:10;" d="M 787.773438 151.620312 L 746.5625 102.51875 " transform="matrix(0.1,0,0,-0.1,0,91.83)"/>
<path style="fill:none;stroke-width:3;stroke-linecap:round;stroke-linejoin:round;stroke:rgb(95.701599%,75.78125%,0%);stroke-opacity:1;stroke-miterlimit:10;" d="M 830.078125 214.667187 L 811.875 183.14375 " transform="matrix(0.1,0,0,-0.1,0,91.83)"/>
<path style="fill:none;stroke-width:3;stroke-linecap:round;stroke-linejoin:round;stroke:rgb(95.701599%,75.78125%,0%);stroke-opacity:1;stroke-miterlimit:10;" d="M 811.875 183.14375 L 787.734375 141.346875 " transform="matrix(0.1,0,0,-0.1,0,91.83)"/>
<path style="fill:none;stroke-width:3;stroke-linecap:round;stroke-linejoin:round;stroke:rgb(95.701599%,75.78125%,0%);stroke-opacity:1;stroke-miterlimit:10;" d="M 838.203125 241.854687 L 829.882812 218.964062 " transform="matrix(0.1,0,0,-0.1,0,91.83)"/>
<path style="fill:none;stroke-width:3;stroke-linecap:round;stroke-linejoin:round;stroke:rgb(95.701599%,75.78125%,0%);stroke-opacity:1;stroke-miterlimit:10;" d="M 829.882812 218.964062 L 818.828125 188.651562 " transform="matrix(0.1,0,0,-0.1,0,91.83)"/>
<path style="fill:none;stroke-width:3;stroke-linecap:round;stroke-linejoin:round;stroke:rgb(95.701599%,75.78125%,0%);stroke-opacity:1;stroke-miterlimit:10;" d="M 843.125 269.745312 L 841.015625 257.753125 " transform="matrix(0.1,0,0,-0.1,0,91.83)"/>
<path style="fill:none;stroke-width:3;stroke-linecap:round;stroke-linejoin:round;stroke:rgb(95.701599%,75.78125%,0%);stroke-opacity:1;stroke-miterlimit:10;" d="M 841.015625 257.753125 L 838.203125 241.854687 " transform="matrix(0.1,0,0,-0.1,0,91.83)"/>
<g clip-path="url(#clip8)" clip-rule="nonzero">
<path style=" stroke:none;fill-rule:nonzero;fill:rgb(90.039062%,90.039062%,90.039062%);fill-opacity:1;" d="M 122.460938 91.828125 C 138.40625 91.828125 151.332031 78.105469 151.332031 61.171875 C 151.332031 50.785156 146.464844 41.601562 139.023438 36.058594 L 135.078125 42.039062 C 140.75 46.261719 144.460938 53.257812 144.460938 61.171875 C 144.460938 74.074219 134.609375 84.53125 122.460938 84.53125 L 122.460938 91.828125 "/>
</g>
<path style=" stroke:none;fill-rule:nonzero;fill:rgb(0.390625%,62.5%,23.826599%);fill-opacity:1;" d="M 122.460938 90.371094 C 137.648438 90.371094 149.957031 77.296875 149.957031 61.171875 C 149.957031 51.28125 145.324219 42.535156 138.234375 37.253906 L 135.867188 40.84375 C 141.894531 45.332031 145.835938 52.761719 145.835938 61.171875 C 145.835938 74.878906 135.371094 85.992188 122.460938 85.992188 L 122.460938 90.371094 "/>
<path style=" stroke:none;fill-rule:nonzero;fill:rgb(90.039062%,90.039062%,90.039062%);fill-opacity:1;" d="M 122.460938 30.515625 C 114.488281 30.515625 107.269531 33.949219 102.046875 39.496094 L 106.90625 44.65625 C 110.886719 40.429688 116.386719 37.816406 122.460938 37.816406 L 122.460938 30.515625 "/>
<path style=" stroke:none;fill-rule:nonzero;fill:rgb(0.390625%,62.5%,23.826599%);fill-opacity:1;" d="M 122.460938 31.976562 C 114.867188 31.976562 107.996094 35.246094 103.019531 40.527344 L 105.9375 43.625 C 110.164062 39.132812 116.007812 36.355469 122.460938 36.355469 L 122.460938 31.976562 "/>
<path style="fill:none;stroke-width:15;stroke-linecap:round;stroke-linejoin:round;stroke:rgb(0.390625%,62.5%,23.826599%);stroke-opacity:1;stroke-miterlimit:10;" d="M 1224.609375 363.260937 L 1224.609375 590.01875 " transform="matrix(0.1,0,0,-0.1,0,91.83)"/>
<path style="fill:none;stroke-width:10;stroke-linecap:round;stroke-linejoin:round;stroke:rgb(0.390625%,62.5%,23.826599%);stroke-opacity:1;stroke-miterlimit:10;" d="M 983.671875 306.58125 L 1224.609375 363.260937 L 1465.546875 306.58125 " transform="matrix(0.1,0,0,-0.1,0,91.83)"/>
<path style="fill:none;stroke-width:50;stroke-linecap:round;stroke-linejoin:round;stroke:rgb(0.390625%,62.5%,23.826599%);stroke-opacity:1;stroke-miterlimit:10;" d="M 1224.609375 363.260937 L 1224.609375 476.659375 " transform="matrix(0.1,0,0,-0.1,0,91.83)"/>
<path style=" stroke:none;fill-rule:nonzero;fill:rgb(90.039062%,90.039062%,90.039062%);fill-opacity:1;" d="M 127.132812 24.257812 C 123.402344 28.410156 121.925781 34.378906 123.773438 40.066406 C 125.621094 45.753906 130.324219 49.714844 135.78125 50.878906 L 136.074219 49.492188 C 131.097656 48.429688 126.808594 44.816406 125.121094 39.628906 C 123.4375 34.4375 124.78125 28.992188 128.183594 25.207031 L 127.132812 24.257812 "/>
</g>
</svg>
